<svg width="117" height="127" viewBox="0 0 117 127" fill="none" xmlns="http://www.w3.org/2000/svg">
<path d="M112.5 57.5C112.5 86.7711 88.7711 110.5 59.5 110.5C30.2289 110.5 6.5 86.7711 6.5 57.5C6.5 28.2289 30.2289 4.5 59.5 4.5C88.7711 4.5 112.5 28.2289 112.5 57.5Z" stroke="#4ED1B3" stroke-width="9"/>
<path d="M13 101.5C16.7449 99.3168 17.5879 96.2017 14.5 92.5L20 99L13 101.5Z" fill="#4ED1B3" stroke="#4ED1B3" stroke-linecap="round" stroke-linejoin="round"/>
<path d="M104.5 103C100.755 100.817 99.9121 97.7017 103 94L97.5 100.5L104.5 103Z" fill="#4ED1B3" stroke="#4ED1B3" stroke-linecap="round" stroke-linejoin="round"/>
<path d="M0 112.494C0 108.15 2.67856 104.23 6.76443 102.755C44.9778 88.959 69.3438 89.2792 108.195 102.834C112.292 104.263 115 108.166 115 112.505C115 119.616 108 124.599 101.169 122.621C69.1476 113.349 46.4088 113.549 13.8809 122.744C6.99756 124.69 0 119.647 0 112.494Z" fill="#4ED1B3"/>
<path d="M21 88.5C27.9191 95.0527 31.6683 96.9297 36.7074 95.9482L38.5 95.5C37.881 95.6852 37.2857 95.8355 36.7074 95.9482L30.5 97.5L21 88.5Z" fill="#4ED1B3" stroke="#4ED1B3" stroke-linecap="round" stroke-linejoin="round"/>
<path d="M21 88.5C27.9191 95.0527 31.6683 96.9297 36.7074 95.9482L38.5 95.5C37.881 95.6852 37.2857 95.8355 36.7074 95.9482L30.5 97.5L21 88.5Z" fill="#4ED1B3" stroke="#4ED1B3" stroke-linecap="round" stroke-linejoin="round"/>
<path d="M97.5 89C90.5809 95.5527 86.8317 97.4297 81.7926 96.4482L80 96C80.619 96.1852 81.2143 96.3355 81.7926 96.4482L88 98L97.5 89Z" fill="#4ED1B3" stroke="#4ED1B3" stroke-linecap="round" stroke-linejoin="round"/>
<path d="M72.3188 64.7231L97.9225 60.4557C97.9225 60.4557 97.7657 63.3223 95.7611 63.7254C85.8411 65.7205 84.7327 74.5877 84.7327 74.5877C87.6699 77.137 101.968 74.1443 101.968 74.1443C101.968 74.1443 102.231 76.5898 101.248 76.9153C94.7636 78.6887 82.7447 78.9104 81.6846 80.0742C81.6846 80.0742 86.6724 80.4067 88.9446 80.7946C91.2167 81.1826 96.4816 82.4018 96.4816 82.4018C96.4816 82.4018 76.3091 81.3022 69.3262 81.6259C62.3434 81.9496 51.0933 82.956 43.0575 83.2331C35.0218 83.5102 21.0007 80.185 21.0007 80.185C21.0007 80.185 28.2052 81.0163 30.6436 81.0163H39.8986C39.8986 81.0163 35.5759 80.4621 27.5955 77.4141C19.6151 74.366 20.003 65.776 20.003 65.776C20.003 65.776 19.7814 57.4076 26.2654 57.5185C27.272 57.5357 28.8147 59.0148 27.4846 60.8437C27.0413 61.4533 26.2654 61.5087 26.2654 60.8991C26.2654 60.2895 27.1225 60.2729 26.6533 59.5691C25.9883 58.5715 24.3257 59.7908 24.1041 60.8437C23.8824 61.8967 23.5498 67.7866 29.9785 68.6024C29.9785 68.6024 39.2335 69.4336 49.8186 69.4336C60.4037 69.4336 70.4346 68.6024 70.4346 68.6024C72.0971 67.9928 72.3188 64.7231 72.3188 64.7231Z" fill="#4ED1B3"/>
<path d="M51.2039 50.5357C46.4379 43.2758 37.0166 39.2302 37.0166 39.2302L62.454 35.0737C62.454 35.0737 77.251 42.0011 78.3593 48.5406C79.4677 55.0801 75.2559 56.4656 75.2559 56.4656C75.2559 56.4656 75.9209 52.9187 71.9307 53.0296C67.9405 53.1404 49.5968 66.0531 49.5968 66.0531C49.5968 66.0531 55.97 57.7956 51.2039 50.5357Z" fill="#4ED1B3"/>
<path d="M52.444 26.0072C49.2297 25.3976 44.7961 26.6168 44.7961 26.6168C44.7961 26.6168 46.6596 27.5035 47.8234 29.2769C48.9873 31.0503 48.7863 32.7461 48.7863 32.7461C48.7863 32.7461 51.3149 30.6624 54.162 30.9395C57.009 31.2166 57.1893 31.793 59.1844 32.1809C61.1795 32.5688 63.4144 29.337 65.426 29.5762C67.144 30.075 68.1069 31.691 69.25 32.1809C70.3931 32.6708 72.9284 32.3472 74.3138 31.2388C74.3138 31.2388 71.8754 32.5134 69.9911 31.6821C67.8298 29.7424 67.2549 27.9136 65.0935 27.9136C62.9322 27.9136 62.7312 29.9777 59.1844 29.2769C57.6559 28.9749 55.6583 26.6168 52.444 26.0072Z" fill="#4ED1B3"/>
<path d="M13.6715 118.226C12.9787 118.481 12.2795 118.646 11.5737 118.722C10.8757 118.783 10.2008 118.689 9.54911 118.439C8.90818 118.185 8.32305 117.72 7.79372 117.046C7.27521 116.367 6.84756 115.411 6.51075 114.175C6.17395 112.94 6.04937 111.872 6.13701 110.971C6.23548 110.065 6.4838 109.294 6.88199 108.658C7.291 108.018 7.79747 107.495 8.4014 107.089C9.01312 106.668 9.66535 106.33 10.3581 106.075C11.0508 105.82 11.7462 105.662 12.4442 105.602C13.153 105.537 13.8279 105.631 14.4688 105.885C15.1205 106.135 15.7057 106.599 16.2242 107.278C16.7535 107.952 17.1851 108.902 17.5188 110.126C17.8526 111.35 17.9702 112.414 17.8718 113.32C17.7841 114.221 17.5358 114.992 17.1268 115.632C16.7286 116.269 16.2237 116.797 15.6119 117.218C15.011 117.635 14.3642 117.971 13.6715 118.226ZM12.8977 115.389C13.6987 115.094 14.2381 114.626 14.5159 113.985C14.7937 113.344 14.7718 112.434 14.4502 111.255C14.1286 110.075 13.6953 109.316 13.1505 108.978C12.6057 108.64 11.9328 108.618 11.1318 108.913C10.3416 109.203 9.80921 109.675 9.53443 110.327C9.25966 110.979 9.28006 111.883 9.59562 113.041C9.91118 114.198 10.3429 114.951 10.8907 115.3C11.4386 115.65 12.1076 115.679 12.8977 115.389Z" fill="white"/>
<path d="M24.2405 114.486L22.6398 105.16L22.01 103.533L22.1686 102.414L27.1911 101.251C28.0001 101.064 28.789 100.964 29.5579 100.952C30.3361 100.925 31.0534 101.054 31.7099 101.34C32.3776 101.622 32.9473 102.117 33.419 102.823C33.9019 103.527 34.2507 104.504 34.4653 105.754C34.6799 107.005 34.6823 108.074 34.4725 108.961C34.2608 109.838 33.8952 110.567 33.3758 111.148C32.8564 111.729 32.2349 112.192 31.5113 112.537C30.799 112.879 30.0496 113.141 29.2631 113.323L24.2405 114.486ZM26.8398 111.048L28.7948 110.595C29.7836 110.366 30.4972 109.929 30.9355 109.284C31.3719 108.628 31.4867 107.697 31.2799 106.492C31.0731 105.287 30.66 104.514 30.0407 104.173C29.4307 103.818 28.6369 103.753 27.6593 103.98L25.7043 104.432L26.8398 111.048Z" fill="white"/>
<path d="M43.3745 110.861L42.9738 105.686L38.2418 100.129L38.1617 99.0945L41.775 98.717L44.1416 102.399L44.4858 102.363L46.2315 98.2514L49.8448 97.8739L49.9249 98.9088L46.0102 105.473L46.2483 107.204L46.5061 110.533L43.3745 110.861Z" fill="white"/>
<path d="M59.3795 110.244C58.7452 110.236 58.1461 110.17 57.5822 110.047C57.0184 109.913 56.5297 109.756 56.1163 109.578C55.7029 109.399 55.3989 109.233 55.2043 109.081L55.2352 105.984C55.7856 106.303 56.4804 106.607 57.3195 106.895C58.1587 107.171 59.0915 107.316 60.1179 107.33C60.533 107.336 60.8391 107.288 61.0362 107.187C61.245 107.074 61.3507 106.88 61.3535 106.603C61.3565 106.303 61.1283 106.052 60.6689 105.85C60.2212 105.636 59.5088 105.373 58.5315 105.06C57.7728 104.807 57.1239 104.533 56.5847 104.238C56.0572 103.931 55.6515 103.556 55.3676 103.114C55.0953 102.661 54.9626 102.088 54.9695 101.396C54.9766 100.681 55.1676 100.037 55.5423 99.4658C55.9171 98.8941 56.4983 98.4463 57.2858 98.1224C58.0733 97.7985 59.0783 97.6447 60.3007 97.6612C60.6698 97.6661 61.0617 97.6887 61.4765 97.7289C61.903 97.7577 62.2428 97.7969 62.4961 97.8464L64.4365 99.3085L63.7408 101.41L59.6523 100.23C59.1795 100.224 58.8268 100.317 58.5942 100.51C58.3731 100.703 58.2612 100.938 58.2584 101.215C58.2551 101.55 58.4427 101.817 58.8213 102.019C59.1999 102.22 59.7458 102.423 60.4588 102.629C61.5859 102.955 62.4589 103.313 63.0778 103.702C63.6968 104.091 64.1307 104.529 64.3796 105.017C64.6286 105.493 64.7501 106.031 64.7441 106.631C64.7331 107.738 64.2802 108.626 63.3854 109.295C62.4908 109.952 61.1555 110.268 59.3795 110.244Z" fill="white"/>
<path d="M73.7591 111.309C73.1299 111.228 72.5405 111.095 71.9909 110.908C71.4423 110.71 70.9703 110.498 70.5749 110.273C70.1794 110.048 69.8915 109.848 69.7112 109.674L70.0043 106.591C70.5239 106.972 71.1882 107.353 71.9971 107.736C72.8071 108.107 73.7211 108.358 74.7393 108.489C75.1511 108.541 75.4592 108.529 75.6635 108.45C75.8803 108.362 76.0018 108.18 76.028 107.904C76.0564 107.606 75.851 107.33 75.412 107.076C74.9855 106.812 74.3003 106.468 73.3563 106.045C72.6242 105.707 72.0029 105.36 71.4925 105.004C70.9947 104.638 70.6235 104.219 70.379 103.746C70.147 103.263 70.0638 102.677 70.1292 101.988C70.1969 101.276 70.4411 100.656 70.8617 100.129C71.2823 99.6022 71.8974 99.222 72.707 98.9888C73.5165 98.7556 74.5276 98.7168 75.7402 98.8723C76.1063 98.9192 76.4936 98.9863 76.9021 99.0736C77.3232 99.1508 77.6574 99.2285 77.9047 99.3067L79.7079 100.985L78.8389 103L74.8785 101.359C74.4095 101.299 74.0513 101.352 73.804 101.518C73.5681 101.685 73.437 101.906 73.4108 102.182C73.3792 102.515 73.5428 102.803 73.9018 103.047C74.2607 103.29 74.7856 103.555 75.4763 103.841C76.5679 104.295 77.4046 104.751 77.9863 105.209C78.568 105.667 78.9618 106.154 79.1676 106.668C79.3746 107.171 79.4496 107.721 79.3929 108.318C79.2881 109.421 78.7631 110.254 77.8179 110.818C76.8737 111.371 75.5208 111.535 73.7591 111.309Z" fill="white"/>
<path d="M84.1193 112.926L83.9692 111.822L84.615 110.202L86.3127 100.875L94.6292 102.918L95.3763 103.634L93.8337 105.745L92.3526 105.203L88.8412 104.341L88.5004 106.213L93.0198 107.323L92.5397 109.961L90.5571 109.475L88.0512 108.681L87.6392 110.945L92.6626 112.179L94.3645 114.304L93.175 115.149L84.1193 112.926Z" fill="white"/>
<path d="M101.172 117.997L102.55 112.993L100.127 105.694L100.402 104.694L103.808 105.959L104.716 110.452L105.04 110.572L108.008 107.52L111.413 108.785L111.138 109.786L105.376 114.154L105.01 115.874L104.123 119.093L101.172 117.997Z" fill="white"/>
</svg>
