<svg width="380" height="370" viewBox="0 0 380 370" fill="none" xmlns="http://www.w3.org/2000/svg">
<path d="M272.5 61C274.413 70.8696 278.983 62.8034 285 66C317 83 305 51 311 52C313.576 52.4293 312.661 47.2905 312.5 41.4999C312.286 33.8019 312.141 24.5683 311 22C309.832 19.3719 314 20.9999 316 18.4999C317.181 17.0233 321 11.9999 315.5 4.99998C310 -1.99996 318 8.49995 298.5 8.49994C279 8.49994 267.5 20.4999 266 27.9999C264.5 35.4999 270.587 51.1303 272.5 61Z" fill="white"/>
<path fill-rule="evenodd" clip-rule="evenodd" d="M190.169 35.2469C302.008 54.0409 380 117.898 380 219.852C380 342.056 283.109 215.083 216.299 286.331C149.488 357.58 7.14749 359.6 0.338594 219.852C-6.03538 89.0307 78.3307 16.4529 190.169 35.2469Z" fill="#64FCD9"/>
<path d="M185.746 138.721C185.993 139.54 191.302 122.11 196.192 115.643C198.851 112.127 215.098 94.8026 215.727 94.1176C216.357 93.4327 234.475 69.7579 234.948 69.763C235.421 69.7681 226.817 54.4315 221.399 53.9352C215.981 53.439 212.619 54.9789 203.754 63.4118C194.889 71.8447 179.36 85.3528 170.553 104.785C159.544 129.075 185.499 137.903 185.746 138.721Z" fill="white"/>
<path fill-rule="evenodd" clip-rule="evenodd" d="M131.735 236.606L161.319 198.323L161.998 198.86C166.367 202.297 169.832 204.561 172.393 205.655L173.15 205.976C185.451 211.152 193.909 212.91 192.549 214.125L190.866 215.639C179.995 225.456 165.109 239.733 146.21 258.468C143.622 261.258 140.135 263.048 136.367 263.525L132.469 263.991C94.2136 268.521 69.6705 268.912 60.6769 266.92C58.7986 266.504 53.0173 267.59 48.6524 271.976C42.105 278.555 32.742 294.403 31.1697 294.403C28.8838 294.403 31.0378 283.906 37.6316 262.913L38.3284 260.473C41.4004 249.819 43.6104 243.52 44.9584 241.575C46.4061 239.486 51.2966 243.174 59.6297 252.637L59.4038 253.867C60.4853 252.612 61.7674 251.277 63.2501 249.861L67.1873 249.39C81.0967 247.701 91.6695 246.156 98.9055 244.755L99.6674 244.606C107.507 243.052 118.196 240.385 131.735 236.606Z" fill="white"/>
<path fill-rule="evenodd" clip-rule="evenodd" d="M315.963 196.944L326.963 205.237C329.074 206.826 330.622 209.054 331.377 211.588L333.46 218.57C334.441 220.681 333.583 223.19 331.516 224.259L327.631 227.142C325.132 228.432 322.086 227.035 321.43 224.298L319.244 216.517C319.244 216.517 309.974 213.7 308.741 202.664L315.963 196.944Z" fill="white"/>
<path fill-rule="evenodd" clip-rule="evenodd" d="M262.944 60.7531C270.46 61.059 274.237 71.3632 276.695 76.4567C277.532 78.1918 271.645 129.473 269.721 142.595C266.295 165.964 255.941 173.374 249.441 174.965C249.441 174.965 249.831 201.534 247.109 208.146C241.08 222.789 164.774 212.961 157.317 188.488C152.219 171.758 171.164 169.808 178.274 159.721C191.306 141.235 191.982 124.03 206.02 111.722C211.34 105.89 217.516 100.036 222.843 92.9968L225.01 90.1441C238.559 72.3864 248.877 60.6046 262.238 60.7352L262.944 60.7531Z" fill="white"/>
<path fill-rule="evenodd" clip-rule="evenodd" d="M225.257 105.203C224.012 105.804 222.191 105.99 221.542 104.77C219.503 100.94 213.267 100.413 210.617 103.848C213.161 102.973 216.125 102.138 218.399 103.575C219.032 103.975 219.579 104.535 220.12 105.09C221.022 106.014 221.907 106.921 223.148 107.043C224.071 107.134 224.95 106.745 225.824 106.358C226.763 105.943 227.696 105.53 228.675 105.714C229.761 105.919 230.522 106.783 231.284 107.647C232.043 108.509 232.803 109.371 233.884 109.58C234.77 109.751 235.659 109.433 236.54 109.119C237.526 108.767 238.501 108.418 239.449 108.76C240.581 109.168 241.098 110.335 241.616 111.503C242.131 112.665 242.647 113.827 243.768 114.246C244.432 114.493 245.149 114.404 245.857 114.265L246.56 114.122C248.216 113.792 250.004 113.763 251.519 114.508C252.82 115.149 253.846 116.475 253.929 117.891C253.963 117.585 253.993 117.28 254.019 116.976L254.282 115.253C252.78 113.49 250.42 112.492 248.108 112.645C247.712 112.672 247.316 112.73 246.921 112.787C246.159 112.899 245.4 113.01 244.644 112.895C243.495 112.72 242.329 111.743 242.523 110.598L242.54 110.474C242.751 108.557 240.182 107.457 238.207 107.618C237.788 107.653 237.358 107.709 236.926 107.765C235.28 107.979 233.597 108.197 232.304 107.251C231.805 106.885 231.419 106.373 231.037 105.866C230.502 105.156 229.974 104.456 229.153 104.18C228.246 103.876 227.324 104.195 226.429 104.62L226.132 104.765L225.257 105.203ZM210.939 118.538C211.796 119.688 213.56 119.044 214.922 118.547L214.993 118.521C218.644 117.188 223.043 118.228 225.711 121.054C227.174 122.604 229.339 122.171 231.58 121.722C233.453 121.348 235.378 120.962 236.993 121.714C237.747 122.065 238.448 122.659 239.135 123.241C240.393 124.308 241.603 125.335 243.014 124.754C245.688 123.652 248.97 124.24 251.117 126.169L251.11 126.776L251.101 128.117C248.966 125.978 245.51 125.286 242.717 126.437C241.307 127.018 240.096 125.991 238.838 124.924C238.151 124.342 237.451 123.748 236.696 123.397C235.082 122.645 233.156 123.031 231.284 123.405C229.042 123.854 226.878 124.287 225.415 122.737C222.8 119.968 218.522 118.914 214.916 120.127L214.196 120.385C212.912 120.84 211.412 121.254 210.643 120.221C208.217 116.963 203.345 115.821 199.724 117.662L200.192 115.894L200.406 115.796C203.98 114.221 208.598 115.395 210.939 118.538ZM202.626 133.065C201.284 133.615 199.547 134.326 198.646 133.21C197.006 131.176 193.259 131.027 187.406 132.765C187.853 133.069 189.008 133.039 190.431 133.002C193.113 132.932 196.749 132.837 198.415 134.903C199.223 135.905 200.706 135.434 201.971 134.93L202.681 134.644C206.238 133.294 210.553 134.183 213.272 136.85C214.794 138.342 216.94 137.826 219.162 137.292C221.019 136.846 222.928 136.387 224.57 137.076C225.338 137.398 226.061 137.965 226.769 138.52L226.769 138.52C228.067 139.538 229.317 140.517 230.703 139.882L230.896 139.798C232.468 139.134 235.487 140.252 238.223 141.266C240.214 142.003 242.055 142.685 243.081 142.585C236.737 138.852 232.689 137.386 230.935 138.189L230.796 138.248C229.464 138.758 228.256 137.811 227.001 136.827C226.293 136.271 225.57 135.705 224.802 135.383C223.16 134.694 221.251 135.153 219.394 135.599C217.172 136.133 215.025 136.649 213.504 135.157C210.729 132.435 206.293 131.565 202.696 133.037L202.626 133.065ZM215.061 194.704C216.671 195.737 218.755 197.075 220.244 196.341C222.873 195.044 227.611 196.195 234.458 199.794L235.116 200.144C234.445 200.268 232.939 199.804 231.081 199.233C227.581 198.156 222.836 196.697 220.081 198.055C218.745 198.715 216.928 197.704 215.407 196.743L214.554 196.201C210.536 193.734 205.108 192.902 200.901 194.065C199.552 194.627 197.674 193.969 195.611 193.247C194.207 192.755 192.717 192.234 191.249 192.045C189.44 191.813 188.508 191.953 187.69 192.075C186.869 192.198 186.164 192.303 184.801 191.999C183.748 191.763 182.064 191.027 179.751 189.789C175.65 187.82 168.384 188.058 164.56 189.427L164.353 189.499C160.265 190.851 160.299 189.369 164.41 187.827L164.722 187.713L164.968 187.628C169.337 186.172 177.429 186.331 181.664 189.049L181.748 189.102C183.357 190.135 185.441 191.474 186.93 190.739L187.04 190.69C188.081 190.262 190.517 190.269 191.273 190.319L191.412 190.331C193.954 190.612 194.507 190.843 195.111 191.284L195.544 191.612L195.792 191.707C196.71 192.065 197.685 192.488 198.716 192.977C199.142 192.939 199.632 192.827 200.211 192.62L200.457 192.535C204.826 191.08 210.743 191.933 214.978 194.65L215.061 194.704ZM196.131 145.881C197.083 146.998 198.922 146.286 200.341 145.737L200.415 145.708C204.22 144.236 208.913 145.106 211.849 147.828C213.459 149.32 215.729 148.804 218.08 148.27C220.045 147.824 222.065 147.365 223.802 148.054C224.614 148.376 225.379 148.943 226.128 149.498C227.455 150.482 228.734 151.43 230.143 150.919L230.29 150.861C232.145 150.058 236.428 151.523 243.139 155.257C242.054 155.356 240.106 154.674 238 153.937C235.105 152.924 231.912 151.805 230.249 152.469L230.045 152.554C228.578 153.189 227.256 152.209 225.883 151.191C225.133 150.636 224.369 150.069 223.556 149.747C221.819 149.058 219.799 149.517 217.835 149.963C215.484 150.498 213.213 151.013 211.604 149.521C208.727 146.854 204.162 145.965 200.399 147.316L199.648 147.601C198.31 148.106 196.74 148.577 195.886 147.574C194.124 145.509 190.277 145.603 187.44 145.673C185.934 145.71 184.712 145.74 184.239 145.436C190.432 143.698 194.396 143.847 196.131 145.881ZM195.165 159.675C193.532 160.224 191.417 160.936 190.321 159.819C188.325 157.785 183.764 157.637 176.639 159.374C177.184 159.678 178.589 159.648 180.321 159.611H180.322H180.322H180.322H180.322C183.586 159.542 188.012 159.447 190.039 161.513C191.022 162.515 192.828 162.044 194.368 161.54L195.232 161.254C199.561 159.903 204.813 160.792 208.123 163.46C209.975 164.952 212.588 164.436 215.293 163.902C217.552 163.456 219.877 162.997 221.875 163.685C222.81 164.007 223.69 164.574 224.552 165.13C226.132 166.148 227.652 167.127 229.34 166.492L229.575 166.407C231.488 165.744 235.163 166.862 238.493 167.876C240.916 168.613 243.157 169.295 244.406 169.195C236.684 165.461 231.757 163.996 229.622 164.799L229.453 164.858C227.832 165.368 226.361 164.42 224.834 163.437C223.972 162.881 223.092 162.314 222.157 161.992C220.159 161.304 217.835 161.762 215.575 162.209C212.87 162.743 210.257 163.259 208.405 161.766C205.028 159.045 199.628 158.175 195.25 159.646L195.165 159.675ZM182.483 170.59C183.712 171.707 186.084 170.995 187.916 170.446L188.011 170.417C192.922 168.945 198.977 169.815 202.765 172.537C204.842 174.029 207.772 173.513 210.805 172.979C213.34 172.533 215.946 172.074 218.188 172.763C219.236 173.085 220.223 173.652 221.189 174.207C222.902 175.191 224.552 176.139 226.37 175.628L226.56 175.57C228.953 174.767 234.479 176.232 243.139 179.966C241.739 180.065 239.226 179.383 236.508 178.646C232.773 177.633 228.652 176.514 226.506 177.178L226.243 177.263C224.35 177.898 222.645 176.918 220.873 175.9C219.906 175.345 218.919 174.778 217.871 174.456C215.63 173.767 213.023 174.226 210.489 174.672C207.455 175.207 204.525 175.722 202.448 174.23C198.736 171.563 192.846 170.674 187.991 172.025L187.022 172.31C185.295 172.815 183.27 173.286 182.167 172.283C179.894 170.218 174.93 170.312 171.269 170.382C169.326 170.419 167.75 170.449 167.139 170.145C175.13 168.407 180.245 168.556 182.483 170.59ZM182.216 179.949C180.384 180.498 178.012 181.21 176.783 180.093C174.545 178.059 169.43 177.911 161.439 179.648C162.05 179.952 163.626 179.922 165.569 179.885C169.23 179.816 174.194 179.721 176.467 181.787C177.57 182.789 179.595 182.318 181.322 181.814L182.291 181.528C186.833 180.265 192.28 180.961 196.003 183.24C197.145 184.151 199.132 184.037 201.315 183.912C202.8 183.826 204.375 183.736 205.838 183.959C207.641 184.235 208.498 184.626 209.251 184.969C210.006 185.314 210.656 185.61 212.049 185.693C213.666 185.789 217.512 184.961 217.512 184.961C221.997 184.199 228.916 186.432 232.215 188.802L232.394 188.928C236.039 191.415 236.343 189.848 232.532 187.109L232.319 186.96C228.52 184.356 220.697 182.277 215.878 183.722L215.782 183.75C213.951 184.3 211.579 185.011 210.35 183.895C209.493 183.116 206.694 182.358 206.154 182.266C203.302 181.78 202.915 181.932 202.049 182.273L202.048 182.273C201.979 182.3 201.906 182.329 201.829 182.358L201.565 182.382C200.583 182.473 199.53 182.611 198.404 182.797C198.005 182.642 197.565 182.4 197.065 182.04L196.852 181.891C193.053 179.287 187.131 178.476 182.311 179.92L182.216 179.949Z" fill="#FFB61D"/>
<path d="M243.833 107.705C225.374 121.743 212.445 128.387 184.933 138.116" stroke="#00160A" stroke-width="7" stroke-linejoin="round"/>
<path fill-rule="evenodd" clip-rule="evenodd" d="M260.519 68.4673C271.204 68.5041 279.637 77.5724 278.917 88.248C278.917 88.248 266.456 142.474 272.772 161.748C275.215 169.205 310.49 192.408 308.999 194.792L304.022 206.723C302.252 209.547 248.11 173.317 248.11 173.317C242.916 169.192 241.95 87.1818 241.95 87.1818C241.848 76.8532 250.203 68.431 260.519 68.4673Z" fill="white"/>
<path d="M316.602 196.944L310.24 210.051L310.113 210.401C309.583 211.759 307.56 212.59 307.299 212.657L307.261 212.657L303.504 210.432C303.073 210.071 302.838 208.042 303.293 206.154L303.4 205.758C303.4 205.758 306.379 195.29 308.846 192.647C310.285 191.105 318.595 192.647 316.602 196.944Z" fill="white"/>
<path fill-rule="evenodd" clip-rule="evenodd" d="M225.96 317.814H210.77C210.77 317.814 228.597 271.513 228.597 259.363C228.597 255.594 214.584 261.272 216.617 255.594C219.412 247.787 229.084 233.825 226.702 226.817C224.211 219.487 214.917 216.832 206.824 213.862C205.273 213.292 233.563 215.257 241.322 209.083C251.558 200.938 243.248 182.95 245.996 189.292C249.313 196.944 270.864 216.142 266.592 236.929C262.43 257.181 225.96 317.814 225.96 317.814Z" fill="white"/>
<path fill-rule="evenodd" clip-rule="evenodd" d="M208.5 322C207.5 326.5 203.463 331.145 206.5 331.5H260.5C260.5 331.5 261 326 232 321.5C231.454 321.963 226.517 315.548 224 316.5C219.399 318.241 215.5 317.5 215.5 317.5C215.5 317.5 208.152 321.043 208.5 322Z" fill="white"/>
<path fill-rule="evenodd" clip-rule="evenodd" d="M182.186 224.557C181.525 225.243 180.873 225.936 180.22 226.63C178.985 227.942 177.751 229.254 176.464 230.513C174.056 232.869 171.624 235.211 169.068 237.403C165.898 240.121 162.649 242.755 159.327 245.284C155.567 248.146 151.717 250.892 147.85 253.608C147.644 253.752 147.44 253.897 147.235 254.042C145.262 255.442 143.291 256.841 140.757 257.273C140.033 257.396 139.356 257.759 138.675 258.125L138.675 258.125C138.132 258.416 137.587 258.708 137.014 258.882C133.061 260.081 129.088 261.222 125.09 262.258C122.635 262.894 120.129 263.347 117.629 263.783C116.073 264.055 107.159 265.472 101.23 266.332C95.3 267.193 75.689 267.193 70.7929 267.091C68.0455 267.034 65.2986 266.939 62.5525 266.834L62.4107 266.829H62.4103C61.8507 266.809 61.2563 266.788 60.7702 266.567C58.0731 265.345 55.9863 266.676 53.8714 268.025L53.7193 268.122C50.9427 269.891 49.2434 272.553 47.5644 275.279C46.6723 276.728 45.7271 278.143 44.782 279.559C43.7648 281.082 42.7476 282.606 41.7968 284.17C40.5381 286.24 39.4154 288.396 38.294 290.548L38.2898 290.557L38.2883 290.559L38.288 290.56C38.0883 290.943 37.8887 291.327 37.6884 291.709C36.2059 294.541 33.9818 296.187 30.7909 296.797C29.205 297.1 27.8464 296.629 26.4911 296.159L26.4909 296.159C25.9887 295.984 25.4869 295.81 24.9742 295.676C23.9707 295.413 23.1617 292.7 23.5196 291.627C24.5642 288.494 25.611 285.361 26.6577 282.228L26.6579 282.228L26.6596 282.223L26.6612 282.218L26.6614 282.217C28.848 275.673 31.0346 269.13 33.2021 262.58C34.7165 258.003 36.1951 253.415 37.6737 248.827L37.6764 248.819C38.0932 247.525 38.5101 246.232 38.9277 244.939C39.127 244.321 39.3163 243.701 39.5055 243.081C39.8193 242.052 40.133 241.024 40.4922 240.011C40.6098 239.68 41.0967 239.271 41.4277 239.257C43.8202 239.162 46.1172 239.748 48.2996 240.644C52.4255 242.338 55.6005 245.195 57.931 248.998C58.549 250.006 59.6276 250.369 60.9879 250.129C61.6441 250.013 62.3062 249.925 62.9681 249.838L62.9686 249.838C63.9797 249.704 64.9901 249.571 65.9774 249.336C68.1732 248.815 70.3959 248.797 72.6179 248.78H72.6183C74.0489 248.768 75.4791 248.757 76.9017 248.611C77.8797 248.511 78.8628 248.454 79.8457 248.396C81.158 248.32 82.4698 248.244 83.7682 248.065C86.1311 247.74 88.4823 247.33 90.8336 246.92L90.8382 246.919L90.8427 246.919L90.8473 246.918L90.8518 246.917C91.9598 246.724 93.0679 246.531 94.1772 246.347C95.0787 246.197 95.9817 246.056 96.8848 245.914L96.8855 245.914L96.8863 245.914L96.8874 245.914L96.8885 245.914L96.8897 245.914C98.6339 245.641 100.378 245.368 102.111 245.035C104.327 244.609 106.526 244.09 108.723 243.572L109.123 243.477L109.518 243.384C111.84 242.837 114.158 242.273 116.476 241.709L116.483 241.707C117.457 241.47 118.431 241.233 119.405 240.997C119.444 240.987 119.484 240.978 119.524 240.968L119.587 240.952L119.717 240.918L119.783 240.901L119.863 240.881C119.831 240.864 119.799 240.848 119.768 240.831L119.703 240.798C119.588 240.738 119.473 240.679 119.363 240.611C119.026 240.403 118.678 240.206 118.331 240.009L118.331 240.009L118.33 240.009L118.33 240.008C117.536 239.559 116.742 239.109 116.067 238.523C114.548 237.204 115.067 235.014 116.998 234.43C118.47 233.986 119.987 233.539 121.507 233.437C123.554 233.3 125.419 232.62 127.287 231.939L127.287 231.938L127.287 231.938C128.037 231.665 128.788 231.391 129.55 231.153C131.35 230.589 132.43 229.53 133.334 227.908C133.77 227.127 134.407 226.465 135.048 225.799C135.499 225.331 135.951 224.861 136.336 224.347C138.326 221.686 140.261 218.981 142.146 216.244C142.546 215.662 142.868 215.026 143.19 214.389C143.436 213.902 143.682 213.415 143.964 212.952C144.625 211.864 145.298 210.764 146.115 209.795L146.222 209.668L146.222 209.668L146.222 209.668L146.222 209.668L146.222 209.668L146.222 209.667L146.222 209.667L146.222 209.667C148.095 207.446 149.974 205.217 152.011 203.151C153.122 202.024 154.347 201.012 155.573 199.999L155.574 199.999C156.153 199.521 156.732 199.042 157.299 198.552C157.586 198.304 157.861 198.036 158.102 197.744C158.515 197.244 158.685 196.828 158.062 196.236C157.971 196.15 157.879 196.064 157.788 195.978L157.572 195.775C155.944 194.243 154.3 192.697 153.41 190.577C153.316 190.355 153.222 190.133 153.128 189.911L153.128 189.911L153.128 189.91L153.128 189.91L153.128 189.91L153.128 189.91L153.128 189.91L153.128 189.91C152.413 188.223 151.692 186.52 151.286 184.754C150.739 182.376 150.959 179.955 151.668 177.559C152.659 174.206 154.735 171.665 157.547 169.842C159.282 168.717 161.107 167.733 162.933 166.749L162.933 166.749C164.286 166.02 165.639 165.29 166.956 164.503C167.974 163.895 168.845 163.009 169.695 162.145L169.757 162.081C169.818 162.02 169.878 161.959 169.938 161.898C173.762 158.027 176.428 153.343 179.083 148.676L179.087 148.669C179.368 148.175 179.649 147.682 179.931 147.19C182.497 142.71 184.801 138.073 187.096 133.444C187.757 132.111 188.324 130.731 188.89 129.351L188.891 129.351C189.392 128.131 189.893 126.91 190.459 125.722C190.907 124.783 191.459 123.894 192.011 123.005L192.011 123.005C192.417 122.352 192.823 121.698 193.188 121.024C193.58 120.3 193.938 119.556 194.296 118.812L194.296 118.812L194.296 118.812L194.296 118.811L194.296 118.811L194.296 118.811L194.296 118.811L194.297 118.81L194.297 118.81C194.839 117.683 195.381 116.557 196.039 115.503C196.51 114.75 197.193 114.129 197.875 113.51L197.875 113.509L197.876 113.509L197.876 113.509L197.876 113.509L197.876 113.509L197.876 113.508L197.877 113.508L197.877 113.508C198.162 113.249 198.447 112.99 198.716 112.722C199.052 112.387 199.394 112.057 199.735 111.728L199.736 111.727C200.092 111.384 200.449 111.041 200.798 110.691C201.415 110.074 202.024 109.449 202.615 108.807C203.751 107.573 204.894 106.345 206.036 105.117L206.037 105.116L206.037 105.116L206.038 105.115L206.038 105.115L206.039 105.114L206.039 105.113L206.04 105.113C208.856 102.085 211.672 99.0578 214.395 95.9484C217.586 92.3039 220.622 88.5171 223.604 84.697C224.79 83.1782 225.859 81.5678 226.927 79.9574L226.928 79.9569C227.404 79.2398 227.879 78.5226 228.366 77.8135C228.393 77.7734 228.416 77.7295 228.438 77.6857C228.471 77.6232 228.503 77.561 228.548 77.5106C229.321 76.6598 230.085 75.8009 230.849 74.942C232.643 72.9253 234.437 70.9086 236.335 68.9956C239.152 66.1571 242.378 63.8035 245.88 61.8433C246.414 61.5444 246.929 61.205 247.443 60.8661C248.254 60.3321 249.062 59.7992 249.941 59.4275C250.148 59.3397 250.357 59.2498 250.568 59.1594C252.247 58.4379 254.007 57.6815 255.739 57.646C259.396 57.5711 263.197 57.6124 266.267 60.1981C266.848 60.6879 267.003 60.5725 267.058 59.9173C267.11 59.2916 267.216 58.6473 267.323 58.0028L267.323 58.0026C267.57 56.501 267.818 54.9982 267.386 53.7273C267.126 52.959 267.035 52.1836 266.944 51.4149V51.4147C266.842 50.5453 266.741 49.6845 266.397 48.8521C265.245 46.0692 264.218 43.2342 263.191 40.4006C263.036 39.9743 262.882 39.5481 262.727 39.1221C262.405 38.2378 262.144 37.309 262.025 36.3787C261.939 35.7139 261.911 35.0417 261.882 34.3696V34.3691C261.853 33.6794 261.824 32.9896 261.733 32.308C261.411 29.883 262.251 27.7522 263.095 25.6129C263.249 25.2223 263.403 24.8315 263.55 24.4385C265.343 19.652 268.702 16.0319 272.329 12.6324C275.451 9.70558 280.624 8.7847 284.807 8.06293C286.352 7.79633 297.198 7.54133 302.926 7.40668L302.926 7.40667C304.795 7.36274 306.118 7.33161 306.396 7.31708C307.526 7.258 308.291 6.73234 309.056 6.16795C310.635 5.00306 311.041 3.1964 311.44 1.4186V1.41857C311.479 1.24331 311.518 1.06833 311.558 0.894269C311.568 0.851966 311.577 0.81057 311.586 0.770219C311.689 0.304051 311.761 -0.0227131 312.462 0.000828456C314.801 0.0793983 316.004 1.60731 317.149 3.3532C318.439 5.31923 319.484 7.36924 319.842 9.71266C320.279 12.566 320.044 15.2165 318.016 17.5662C316.366 19.4773 314.446 20.9379 312.277 22.1636C311.989 22.3263 311.807 23.1879 311.966 23.5559C313.601 27.3277 313.723 31.3039 313.563 35.2958C313.524 36.2648 313.367 37.2286 313.21 38.1927L313.21 38.1933C313.062 39.1065 312.913 40.0199 312.865 40.9382C312.726 43.5723 313.264 46.1057 314.32 48.5555C315.037 50.2173 314.534 51.7912 313.332 53.0974C313.126 53.3211 312.87 53.5084 312.616 53.6941C312.258 53.9553 311.904 54.2134 311.702 54.5653C311.246 55.3615 310.928 56.3196 310.854 57.2328C310.797 57.931 310.872 58.6384 310.947 59.3473V59.3476V59.3479V59.3482V59.3484V59.3487V59.349V59.3493C310.994 59.7902 311.041 60.2317 311.056 60.672C311.115 62.3672 310.471 63.817 309.601 65.2641C308.028 67.8827 305.952 69.8093 302.939 70.44C300.357 70.9804 297.677 71.0125 295.184 70.1626C292.354 69.1976 289.594 67.9625 286.931 66.5963C286.175 66.2083 285.576 65.5113 284.978 64.8147L284.978 64.8142C284.71 64.5027 284.443 64.1914 284.161 63.9078C283.744 63.4876 283.533 63.3656 282.979 63.9528C281 66.0502 279.561 68.4328 278.398 71.0633C277.756 72.5152 278.172 73.7085 278.615 74.9797L278.667 75.1291L278.727 75.3018L278.792 75.4859L278.793 75.4889L278.794 75.4919L278.794 75.4921C279.408 77.2518 280.02 79.0029 279.972 80.9285C279.949 81.8829 279.967 82.8401 279.986 83.7968C280.015 85.3083 280.044 86.8187 279.907 88.3149C279.761 89.9154 279.401 91.4968 279.042 93.0776L279.042 93.0777L279.042 93.0787C278.898 93.7146 278.753 94.3504 278.623 94.9873C278.484 95.6635 278.348 96.3405 278.213 97.0175C277.802 99.0662 277.391 101.115 276.9 103.144C276.673 104.084 276.361 105.002 276.049 105.92C275.793 106.672 275.538 107.424 275.328 108.187C275.086 109.073 274.84 109.957 274.595 110.842C273.64 114.282 272.684 117.724 271.911 121.205C271.249 124.186 270.867 127.252 270.645 130.301C270.506 132.207 270.527 134.125 270.548 136.042V136.043V136.043V136.043V136.044V136.044V136.044V136.044V136.046V136.047V136.049V136.051V136.052V136.054C270.559 137.111 270.571 138.169 270.556 139.225C270.544 140.026 270.502 140.826 270.461 141.626L270.461 141.627L270.461 141.627C270.408 142.645 270.355 143.662 270.364 144.679C270.367 145.085 270.37 145.491 270.373 145.898C270.39 148.584 270.408 151.276 270.644 153.946C270.88 156.609 271.385 159.263 271.968 161.876C272.448 164.023 273.919 165.682 275.38 167.238C276.14 168.048 276.982 168.779 277.826 169.511L277.826 169.512L277.827 169.512C278.416 170.023 279.006 170.535 279.568 171.074C279.953 171.443 280.299 171.855 280.646 172.266C281.076 172.778 281.506 173.288 282.009 173.716C283.648 175.111 285.316 176.473 286.983 177.836C288.248 178.869 289.513 179.903 290.766 180.951C291.89 181.89 292.996 182.85 294.103 183.809L294.104 183.81C295.223 184.781 296.342 185.751 297.478 186.7C299.031 187.998 300.605 189.278 302.25 190.453C303.025 191.007 303.835 191.509 304.646 192.012C305.485 192.532 306.324 193.051 307.122 193.627C308.08 194.319 308.823 193.93 309.563 193.542C309.817 193.409 310.071 193.276 310.334 193.187C312.464 192.468 314.149 192.739 314.948 194.789C315.108 195.199 315.352 195.568 315.598 195.94C316.046 196.616 316.498 197.299 316.459 198.253C316.447 198.552 317.091 198.908 317.642 199.212C317.774 199.285 317.901 199.355 318.012 199.421C319.635 200.378 321.277 201.303 322.92 202.226C323.271 202.423 323.634 202.603 323.996 202.782C324.694 203.128 325.39 203.472 325.996 203.937C326.613 204.411 327.173 204.959 327.734 205.507C328.295 206.056 328.857 206.606 329.476 207.08C330.751 208.056 331.474 209.4 332.192 210.736C332.456 211.227 332.719 211.716 333.009 212.186C333.809 213.483 334.271 215.074 334.537 216.596C334.896 218.646 335.041 220.756 335.033 222.839C335.029 223.709 334.501 224.644 334.017 225.428C333.495 226.274 332.712 226.394 331.958 225.577C331.896 225.51 331.809 225.466 331.722 225.422L331.722 225.422C331.682 225.402 331.641 225.382 331.604 225.359L331.595 225.439L331.587 225.512C331.576 225.623 331.564 225.733 331.549 225.843C331.5 226.193 331.462 226.546 331.424 226.899C331.329 227.768 331.234 228.637 330.991 229.462C330.827 230.015 330.118 230.745 329.626 230.768C329.249 230.786 328.851 230.434 328.458 230.086L328.457 230.086C328.299 229.946 328.142 229.807 327.987 229.693C327.835 229.581 327.707 229.436 327.58 229.293L327.539 229.247C327.46 229.158 327.389 229.061 327.319 228.963C327.288 228.92 327.256 228.877 327.224 228.835C327.2 228.885 327.177 228.935 327.154 228.986C327.102 229.096 327.051 229.206 326.996 229.314C326.925 229.454 326.863 229.603 326.801 229.753C326.662 230.088 326.522 230.424 326.282 230.653C325.354 231.537 324.105 231.193 323.722 229.951C323.524 229.306 323.358 228.651 323.193 227.995L323.193 227.993L323.192 227.991C322.963 227.082 322.734 226.173 322.417 225.295C322.286 224.933 322.177 224.564 322.069 224.195L322.069 224.195C321.753 223.115 321.435 222.033 320.546 221.123C319.906 220.468 319.514 219.565 319.125 218.665L319.125 218.665C318.973 218.315 318.821 217.965 318.655 217.631C317.658 215.621 316.01 214.307 314.104 213.246C313.585 212.958 313.069 212.64 312.619 212.258C311.619 211.408 310.927 211.871 310.32 212.735C309.315 214.164 307.65 214.69 306.102 213.867C303.729 212.606 301.791 210.95 301.147 208.114C301.027 207.589 300.253 207.126 299.685 206.806C297.978 205.843 296.261 204.897 294.543 203.952L294.539 203.95L294.539 203.95C291.688 202.381 288.838 200.812 286.035 199.162C282.539 197.104 279.132 194.889 275.728 192.676C275.386 192.453 275.044 192.231 274.701 192.008C269.334 188.521 263.986 185.003 258.638 181.485L257.888 180.992L256.889 180.335L255.5 179.421C254.33 178.652 253.168 177.87 252.006 177.089L252.005 177.088L252.004 177.088L252.003 177.087L252.002 177.086L252.001 177.085L252 177.085L251.995 177.082L251.989 177.078C251.179 176.533 250.368 175.988 249.555 175.447C249.229 175.23 248.884 175.034 248.53 174.867C247.476 174.369 247.166 174.549 247.081 175.68C247.081 175.693 247.08 175.706 247.08 175.719C247.08 175.733 247.08 175.746 247.081 175.759C247.081 175.775 247.081 175.791 247.081 175.807C247.059 177.391 247.036 178.975 247.014 180.559V180.56V180.561V180.562V180.562V180.563V180.564V180.565C246.953 184.941 246.891 189.316 246.827 193.692C246.806 195.089 247.537 196.16 248.258 197.215C248.404 197.429 248.55 197.642 248.689 197.857C251.231 201.796 253.826 205.701 256.447 209.588C257.164 210.652 257.907 211.699 258.65 212.746L258.651 212.747L258.652 212.748L258.653 212.749L258.654 212.75L258.654 212.751L258.655 212.753L258.656 212.754L258.656 212.754C259.781 214.337 260.904 215.92 261.938 217.561C262.462 218.393 262.775 219.358 263.088 220.324L263.088 220.324L263.088 220.325L263.089 220.325L263.089 220.326L263.089 220.327C263.226 220.75 263.363 221.172 263.518 221.584C263.588 221.771 263.663 221.957 263.737 222.144L263.738 222.145L263.738 222.146L263.738 222.146C263.939 222.651 264.141 223.155 264.267 223.678C265.288 227.904 264.828 232.096 263.819 236.243C263.756 236.502 263.693 236.761 263.63 237.02L263.624 237.047L263.624 237.049L263.623 237.051L263.617 237.077L263.617 237.077L263.617 237.077L263.617 237.078L263.617 237.078L263.617 237.078L263.616 237.078L263.616 237.078C262.99 239.668 262.361 242.27 261.447 244.76C260.713 246.757 259.798 248.687 258.883 250.618L258.882 250.618L258.882 250.618L258.882 250.618L258.882 250.619L258.882 250.619L258.882 250.619L258.882 250.62C258.441 251.549 258 252.478 257.58 253.415C256.845 255.052 256.135 256.7 255.433 258.352C254.243 261.152 253.059 263.954 251.889 266.763C251.465 267.778 251.056 268.8 250.647 269.822L250.647 269.824L250.646 269.826L250.645 269.827L250.645 269.829L250.644 269.831L250.643 269.832L250.642 269.834C249.82 271.888 248.998 273.941 248.064 275.942C246.717 278.824 245.221 281.638 243.727 284.449L243.724 284.453L243.722 284.457C243.509 284.857 243.296 285.258 243.084 285.658C242.151 287.417 241.195 289.163 240.239 290.91L240.239 290.91L240.239 290.91L240.239 290.911L240.239 290.911L240.238 290.911L240.238 290.911L240.237 290.914C239.31 292.607 238.384 294.299 237.478 296.003C236.653 297.557 235.849 299.122 235.046 300.688C234.187 302.361 233.328 304.034 232.442 305.693C231.184 308.049 229.865 310.374 228.508 312.674C227.378 314.589 227.705 315.481 229.012 317.244C230.429 319.155 232.631 319.794 234.815 320.294C240.8 321.661 246.797 322.973 252.794 324.284L252.8 324.285L252.807 324.287L253.116 324.355C253.721 324.487 254.333 324.585 254.945 324.684C255.634 324.795 256.322 324.906 256.999 325.064C260.38 325.856 262.078 328.345 262.982 331.432C263.561 333.407 263.731 335.528 262.159 337.169C261.565 337.789 260.48 338.249 259.618 338.252C248.5 338.29 237.383 338.296 226.266 338.302C219.259 338.306 212.253 338.31 205.246 338.321C204.43 338.323 204.371 338.077 204.309 337.36C204.246 336.629 204.116 335.9 203.986 335.172C203.796 334.103 203.606 333.036 203.629 331.972C203.742 326.857 205.534 322.277 208.668 318.255C208.894 317.965 209.261 317.773 209.623 317.583C210.026 317.372 210.423 317.164 210.612 316.829C211.526 315.212 212.31 313.492 212.91 311.733C213.872 308.915 214.828 306.071 215.446 303.165C215.729 301.83 216.139 300.536 216.549 299.241C217.058 297.631 217.568 296.02 217.838 294.325C218.122 292.536 218.866 290.813 219.605 289.1C219.834 288.568 220.063 288.038 220.277 287.506C221.009 285.695 221.764 283.894 222.519 282.093L222.52 282.092L222.522 282.088C223.696 279.286 224.871 276.484 225.956 273.648C226.729 271.626 227.369 269.555 228.01 267.482L228.011 267.48C228.376 266.298 228.742 265.116 229.132 263.943C229.959 261.459 230.798 258.977 231.744 256.538C231.957 255.99 231.838 255.981 231.539 255.957C231.483 255.953 231.421 255.948 231.354 255.939C227.362 255.408 223.427 255.455 219.704 257.233C218.887 257.622 218.313 257.541 217.773 256.863C217.221 256.17 217.508 255.665 217.997 255.029C220.907 251.237 222.715 246.918 224.101 242.362C224.247 241.885 224.396 241.41 224.545 240.934L224.546 240.933C225.446 238.062 226.345 235.199 226.32 232.148C226.302 229.837 225.732 227.763 224.144 225.83C223.795 225.405 223.474 224.96 223.155 224.517L223.155 224.517L223.155 224.517L223.155 224.517L223.155 224.517L223.155 224.516C222.201 223.193 221.262 221.889 219.626 221.206C218.8 220.861 217.984 220.489 217.169 220.117L217.168 220.117L217.168 220.117L217.167 220.116L217.166 220.116L217.166 220.116L217.165 220.116L217.164 220.115C216.315 219.728 215.465 219.34 214.603 218.983C213.949 218.712 213.296 218.439 212.642 218.165L212.641 218.165L212.64 218.165L212.639 218.164L212.638 218.164L212.637 218.163C210.057 217.084 207.475 216.003 204.842 215.07C203.243 214.503 201.587 214.097 199.931 213.691C199.179 213.507 198.426 213.323 197.679 213.123C197.532 213.084 197.387 213.038 197.241 212.991C197.126 212.954 197.01 212.918 196.893 212.884C195.191 212.398 193.705 212.482 192.549 214.125C192.042 214.846 191.346 215.433 190.616 216.048C190.471 216.17 190.325 216.293 190.179 216.419C187.43 219.131 184.803 221.839 182.186 224.557ZM244.888 176.72L244.888 176.72L244.888 176.719C245.035 175.986 245.181 175.252 245.261 174.511L245.283 174.304C245.455 172.715 245.628 171.104 245.515 169.523C245.456 168.705 245.239 167.901 245.021 167.094L245.021 167.094C244.844 166.441 244.667 165.786 244.574 165.123C244.085 161.633 243.645 158.134 243.306 154.628C243.011 151.579 242.814 148.52 242.618 145.461C242.59 145.033 242.563 144.604 242.535 144.176C242.337 141.123 242.153 138.068 242.034 135.012C241.919 132.081 241.862 129.149 241.806 126.216V126.215C241.798 125.804 241.79 125.393 241.782 124.982C241.778 124.798 241.841 124.613 241.904 124.427C241.945 124.308 241.985 124.189 242.009 124.069C242.035 123.934 242.068 123.797 242.101 123.66C242.191 123.283 242.282 122.903 242.248 122.536C242.211 122.133 242.121 121.73 242.03 121.329L242.03 121.329C241.907 120.785 241.785 120.243 241.798 119.703C241.888 116.12 242.05 112.539 242.212 108.958C242.236 108.429 242.259 107.9 242.283 107.371C242.318 106.601 242.417 105.832 242.534 105.069C242.864 102.921 243.208 100.775 243.551 98.6284L243.552 98.6229L243.553 98.6174L243.554 98.6119C243.634 98.1099 243.715 97.6079 243.795 97.1059C243.823 96.9309 243.86 96.7573 243.898 96.5838C243.915 96.5034 243.933 96.423 243.949 96.3424C243.955 96.3956 243.962 96.4487 243.969 96.5018L243.974 96.5382L243.985 96.6112C244.012 96.8036 244.039 96.9961 244.043 97.189C244.122 101.193 244.196 105.198 244.27 109.203V109.203V109.203L244.299 110.765C244.324 112.116 244.35 113.467 244.376 114.818C244.437 118.035 244.499 121.252 244.55 124.469C244.583 126.599 244.609 128.729 244.636 130.859V130.859C244.683 134.732 244.731 138.606 244.822 142.478C244.89 145.367 245.074 148.257 245.33 151.135C245.518 153.247 245.793 155.351 246.067 157.456C246.154 158.123 246.241 158.79 246.325 159.457C246.443 160.39 246.571 161.323 246.7 162.255C246.924 163.883 247.149 165.512 247.316 167.147C247.529 169.224 248.529 170.906 249.967 172.238C251.016 173.21 252.2 174.038 253.382 174.866L253.384 174.867L253.384 174.867L253.384 174.867L253.384 174.867L253.384 174.867C253.851 175.193 254.317 175.52 254.775 175.855C255.734 176.556 256.688 177.264 257.643 177.972L257.643 177.972C260.038 179.747 262.433 181.523 264.894 183.201C267.093 184.7 269.355 186.104 271.618 187.509L271.619 187.509L271.619 187.509L271.619 187.509L271.619 187.509L271.619 187.509L271.62 187.51L271.62 187.51L271.621 187.51L271.621 187.511L271.622 187.511L271.623 187.512L271.624 187.512C272.719 188.192 273.813 188.871 274.901 189.561C275.943 190.223 276.981 190.891 278.019 191.559L278.021 191.56L278.023 191.561L278.025 191.562L278.027 191.563L278.029 191.565L278.031 191.566L278.032 191.567L278.033 191.567C279.885 192.759 281.737 193.95 283.611 195.105L283.965 195.323L283.965 195.324L283.966 195.324L283.966 195.324L283.967 195.324L283.967 195.324L283.967 195.325L283.968 195.325C287.403 197.442 290.841 199.56 294.358 201.534C296.03 202.473 297.803 203.235 299.573 203.995L299.573 203.995C300.027 204.19 300.481 204.385 300.933 204.583C301.195 204.698 301.8 204.566 301.925 204.357C302.22 203.861 302.411 203.301 302.601 202.745L302.601 202.744L302.602 202.743C302.639 202.632 302.677 202.522 302.716 202.412C303.455 200.301 304.391 198.33 305.988 196.687C307.192 195.446 307.022 195.073 305.349 194.369L305.207 194.309L305.068 194.251C304.368 193.959 303.663 193.664 303.028 193.264C301.848 192.519 300.701 191.711 299.598 190.854C298.619 190.093 297.638 189.336 296.657 188.578C293.348 186.023 290.039 183.467 286.821 180.801C283.825 178.319 280.979 175.644 278.191 172.927C277.803 172.549 277.41 172.173 277.018 171.798C274.646 169.529 272.263 167.251 270.759 164.241C270.553 163.829 270.314 163.432 270.076 163.035L270.075 163.034C269.383 161.881 268.691 160.727 268.793 159.212C268.856 158.285 268.732 157.344 268.608 156.406C268.563 156.066 268.518 155.726 268.482 155.388C268.385 154.472 268.27 153.557 268.154 152.642C267.919 150.772 267.683 148.903 267.603 147.027C267.496 144.493 267.52 141.953 267.545 139.414V139.413C267.555 138.32 267.566 137.226 267.566 136.134C267.566 135.877 267.558 135.62 267.551 135.362C267.534 134.8 267.518 134.238 267.58 133.685C267.88 130.991 268.186 128.297 268.592 125.618C268.634 125.337 268.676 125.056 268.718 124.774C268.752 124.546 268.785 124.317 268.819 124.088L268.822 124.069L268.825 124.046L268.825 124.046L268.825 124.045L268.825 124.045L268.825 124.045L268.825 124.045L268.825 124.045L268.825 124.044C269.203 121.479 269.581 118.909 270.205 116.403C270.75 114.217 271.419 112.064 272.088 109.91L272.088 109.909L272.088 109.909L272.088 109.908L272.088 109.907L272.089 109.907L272.089 109.906L272.089 109.905L272.089 109.905C272.618 108.202 273.147 106.499 273.615 104.78C273.951 103.542 274.322 102.313 274.693 101.084C275.621 98.0069 276.549 94.9293 276.943 91.711C277.029 91.0096 277.207 90.3108 277.384 89.6145C277.644 88.5902 277.903 87.5712 277.867 86.5569C277.736 82.8921 276.716 79.3608 275.689 75.8357C274.154 70.5697 271.492 66.1775 266.886 63.0514C264.229 61.2478 261.445 59.9271 258.148 60.3514C256.952 60.5054 255.769 60.7521 254.585 60.9989C254.015 61.1176 253.446 61.2363 252.875 61.3447C249.636 61.9597 246.769 63.3901 244.187 65.4007C242.676 66.5778 241.2 67.8055 239.765 69.0746C238.33 70.3435 236.895 71.6268 235.588 73.0234C234.372 74.3218 233.241 75.7009 232.112 77.0789L232.111 77.0791L232.111 77.0793L232.111 77.0795L232.111 77.0797L232.111 77.0799L232.11 77.0801L232.11 77.0803L232.109 77.0815L232.108 77.0826L232.107 77.0837L232.106 77.0849C231.862 77.3834 231.617 77.6819 231.371 77.9794C229.429 80.3338 227.491 82.6933 225.59 85.0818C224.758 86.1276 223.943 87.1872 223.128 88.2467L223.128 88.2469L223.128 88.247L223.127 88.2471L223.127 88.2473L223.127 88.2474L223.127 88.2476L223.126 88.2484C221.894 89.8504 220.661 91.4522 219.371 93.0059C217.031 95.8237 214.601 98.5702 212.136 101.28C208.749 105.003 205.302 108.673 201.856 112.342C201.562 112.654 201.224 112.927 200.886 113.2C200.481 113.526 200.077 113.852 199.751 114.245C197.256 117.259 194.906 120.402 193.238 123.951C191.7 127.225 190.218 130.524 188.736 133.824C187.404 136.789 186.072 139.755 184.699 142.701C182.474 147.477 180.025 152.13 177.069 156.521L176.852 156.844C175.269 159.2 173.685 161.556 171.453 163.273C168.545 165.51 165.517 167.593 162.491 169.674L162.49 169.674L162.49 169.675L162.49 169.675L162.49 169.675L162.49 169.675L162.49 169.675L162.49 169.675C161.699 170.219 160.909 170.762 160.121 171.308C157.568 173.078 155.547 175.312 154.554 178.254C153.334 181.866 153.958 185.454 155.661 188.747C157.757 192.8 161.075 195.897 164.463 198.849C168.222 202.124 172.59 204.474 177.303 205.984C183.362 207.925 189.455 209.809 195.862 210.359C197.538 210.503 199.207 210.722 200.876 210.942L200.877 210.942C202.738 211.187 204.599 211.432 206.469 211.572C210.603 211.881 214.755 212.052 218.901 212.075C220.765 212.085 222.63 211.956 224.495 211.826C225.679 211.744 226.863 211.662 228.048 211.615C231.268 211.489 234.318 210.642 237.323 209.573C239.341 208.855 241.209 207.868 241.947 205.687C242.377 204.417 242.59 203.058 242.766 201.722L242.812 201.377C243.184 198.556 243.558 195.73 243.77 192.894C243.965 190.283 244.067 187.664 244.173 184.949L244.173 184.948L244.173 184.946V184.945C244.213 183.923 244.253 182.886 244.299 181.832C244.325 181.492 244.346 181.152 244.367 180.812C244.414 180.045 244.461 179.278 244.566 178.52C244.649 177.917 244.769 177.318 244.888 176.72ZM137.465 255.437C137.6 255.558 137.908 255.637 138.059 255.568C138.751 255.253 139.454 254.956 140.158 254.659L140.158 254.659C141.873 253.935 143.59 253.211 145.135 252.22C147.895 250.451 150.588 248.578 153.281 246.705C155.394 245.235 157.508 243.765 159.654 242.345C164.334 239.248 168.437 235.477 172.542 231.706L172.542 231.705L172.543 231.705L172.544 231.704L172.544 231.704L172.545 231.703C173.343 230.969 174.142 230.235 174.945 229.507C176.192 228.374 177.366 227.158 178.539 225.944L178.539 225.944L178.54 225.943C178.794 225.68 179.047 225.418 179.301 225.156C180.691 223.726 182.069 222.282 183.446 220.839L183.448 220.836L183.451 220.834L183.453 220.831L183.456 220.829L183.458 220.826L183.461 220.824L183.463 220.821C184.063 220.193 184.663 219.564 185.264 218.936C185.695 218.486 186.127 218.037 186.559 217.587C188.128 215.956 189.698 214.324 191.218 212.649C191.397 212.451 191.173 211.465 190.968 211.402C190.106 211.141 189.228 210.928 188.351 210.715C187.238 210.444 186.126 210.174 185.046 209.806L184.496 209.618L184.496 209.618L184.495 209.618L184.495 209.618L184.494 209.618L184.494 209.618L184.493 209.617L184.493 209.617C180.027 208.096 175.555 206.573 171.185 204.805C167.181 203.185 163.472 200.96 160.157 198.137C160.105 198.094 159.867 198.152 159.842 198.214C158.884 200.528 157.102 202.105 155.314 203.688C154.906 204.049 154.498 204.41 154.099 204.78C152.222 206.523 150.359 208.31 148.714 210.267C147.651 211.532 146.746 212.931 145.842 214.329L145.842 214.329C145.509 214.843 145.177 215.357 144.837 215.864C144.453 216.438 144.047 217.001 143.641 217.566C142.645 218.949 141.648 220.334 140.966 221.859C139.443 225.261 137.083 227.971 134.619 230.612C132.197 233.208 128.897 234.175 125.638 235.129C125.335 235.218 125.032 235.307 124.73 235.397C123.533 235.754 122.301 235.993 121.068 236.233L121.068 236.233C120.392 236.364 119.716 236.496 119.046 236.646C118.876 236.685 118.723 236.799 118.57 236.914C118.537 236.938 118.504 236.963 118.471 236.987C118.433 237.014 118.394 237.041 118.356 237.065C118.434 237.16 118.515 237.281 118.595 237.402C118.769 237.664 118.943 237.926 119.097 237.915C120.671 237.803 121.846 238.612 123.001 239.407C123.309 239.619 123.616 239.83 123.928 240.022C125.451 240.96 126.947 241.971 127.834 243.717C128.41 244.85 129.184 245.885 129.956 246.916C130.193 247.232 130.429 247.548 130.66 247.867C131.608 249.178 132.6 250.457 133.68 251.851L133.909 252.147C134.178 252.397 134.448 252.649 134.717 252.9L134.718 252.901C135.629 253.751 136.54 254.601 137.465 255.437ZM218.166 217.468L218.166 217.468C220.188 218.237 222.211 219.007 223.755 220.713C224.223 221.231 224.763 221.683 225.304 222.135L225.304 222.135C225.655 222.429 226.006 222.723 226.339 223.036C227.438 224.07 227.818 225.453 228.197 226.829C228.22 226.915 228.244 227 228.267 227.085C228.299 227.2 228.331 227.314 228.364 227.428C229.403 231.044 229.167 234.784 228.256 238.251L228.101 238.838L228.085 238.901L228.079 238.923C226.864 243.556 225.632 248.257 223.052 252.413C222.753 252.896 222.596 253.154 223.419 253.177C225.632 253.241 227.844 253.324 230.057 253.407C232.494 253.498 234.931 253.589 237.368 253.655C238.898 253.696 240.428 253.686 241.958 253.676C243.013 253.669 244.068 253.662 245.123 253.672C247.884 253.698 250.568 253.299 253.081 252.127C253.18 252.08 253.282 252.034 253.385 251.986L253.389 251.985C254.248 251.592 255.22 251.148 255.608 250.443C256.595 248.647 257.295 246.67 257.933 244.707C258.866 241.836 259.789 238.945 260.44 236.002C260.995 233.488 261.276 230.895 261.45 228.322C261.502 227.548 261.37 226.765 261.239 225.979L261.239 225.979L261.239 225.979V225.978V225.978V225.978V225.978V225.978C261.134 225.353 261.029 224.726 261.015 224.102C260.963 221.652 259.803 219.657 258.643 217.662L258.556 217.513L258.439 217.311C258.169 216.844 257.823 216.423 257.476 216.001L257.476 216.001C257.205 215.671 256.934 215.341 256.698 214.989C254.835 212.203 252.981 209.411 251.126 206.619C249.815 204.645 248.504 202.671 247.189 200.7C247.063 200.511 246.901 200.346 246.738 200.181C246.662 200.104 246.586 200.028 246.514 199.949C246.441 200.06 246.356 200.169 246.27 200.277C246.083 200.515 245.896 200.753 245.841 201.019C245.713 201.635 245.629 202.26 245.545 202.885C245.473 203.417 245.402 203.949 245.303 204.476C244.732 207.531 243.27 209.878 240.392 211.389C236.424 213.471 232.161 214.361 227.803 214.861C225.291 215.15 222.732 215.197 220.202 215.114C218.681 215.065 217.164 214.877 215.647 214.689C214.826 214.587 214.004 214.486 213.182 214.406C212.96 214.384 212.73 214.451 212.5 214.518L212.499 214.518C212.393 214.549 212.287 214.58 212.181 214.602C212.246 214.654 212.311 214.707 212.375 214.76L212.375 214.76C212.537 214.893 212.699 215.025 212.869 215.148C212.878 215.155 212.887 215.161 212.897 215.167C212.925 215.184 212.956 215.198 212.993 215.216L212.994 215.216L212.994 215.216L212.994 215.216C213.073 215.254 213.175 215.302 213.319 215.405C213.407 215.442 213.495 215.477 213.584 215.512C213.64 215.534 213.696 215.555 213.751 215.577L213.903 215.636C214.328 215.799 214.752 215.962 215.15 216.174C216.113 216.686 217.139 217.077 218.166 217.468ZM267.6 21.6474C265.997 23.9937 265.029 26.6692 264.54 29.4819C264.044 32.3399 263.974 35.2302 264.811 38.0199C265.306 39.6671 265.865 41.295 266.425 42.9227C267.072 44.8068 267.72 46.6905 268.266 48.6036C268.604 49.785 269.368 50.338 270.212 50.6354C274.195 52.039 278.523 50.3321 280.996 46.6684C281.667 45.674 281.281 45.2657 280.598 44.5705C279.674 43.6294 278.866 42.5394 278.178 41.4092C277.152 39.7223 277.586 38.0025 278.762 36.6401C279.939 35.2768 281.705 34.9738 283.349 35.545C285.228 36.1977 286.579 37.6345 287.543 39.394C287.588 39.4764 287.62 39.5659 287.653 39.6553C287.668 39.697 287.683 39.7386 287.699 39.7795C287.704 39.7697 287.708 39.76 287.713 39.7503L287.721 39.7341L287.732 39.7125C287.756 39.6648 287.78 39.6171 287.797 39.5669C287.939 39.1325 288.076 38.6955 288.213 38.2583C288.933 35.9642 289.655 33.6639 291.109 31.7067C292.243 30.1809 293.464 28.6594 294.904 27.4416C295.98 26.5311 297.309 25.8977 298.614 25.2761L298.617 25.2743C298.807 25.1841 298.996 25.0941 299.183 25.0035C299.628 24.7886 300.072 24.5693 300.516 24.3499L300.517 24.3492C302.385 23.4268 304.259 22.5007 306.226 21.8844C306.556 21.781 306.723 21.7299 306.8 21.7062L306.8 21.7061C306.844 21.6927 306.859 21.6881 306.859 21.6877C306.859 21.6875 306.855 21.6884 306.848 21.6899C306.745 21.7129 306.079 21.8614 312.579 19.5164C321.654 16.2424 316.985 5.92845 314.298 3.65954C314.098 3.49056 313.78 3.30908 313.565 3.35561C313.372 3.39742 313.126 3.73455 313.106 3.95958C312.904 6.21423 309.601 9.71301 301.755 9.16978C296.385 8.79798 296.268 8.81938 296.011 8.8666C295.893 8.88837 295.745 8.91563 295.038 8.91237C293.346 8.90458 287.489 9.4502 286.305 9.78516C285.875 9.90683 285.312 10.0245 284.65 10.1628C281.495 10.8223 276.085 11.9534 271.992 16.2424C271.538 16.7935 271.072 17.3358 270.606 17.8782L270.606 17.8784C269.555 19.1012 268.505 20.3241 267.6 21.6474ZM289.06 44.0334C289.06 45.1738 288.831 46.2958 288.603 47.4176L288.603 47.4182L288.603 47.4188L288.603 47.4195L288.603 47.4201L288.602 47.4207L288.602 47.4214L288.602 47.422C288.493 47.9598 288.383 48.4976 288.299 49.0374C288.286 49.1227 288.241 49.2031 288.197 49.2836L288.197 49.2838C288.176 49.3212 288.155 49.3587 288.138 49.3966C288.128 49.3601 288.119 49.3236 288.109 49.2872C288.088 49.2094 288.066 49.1316 288.052 49.0526C287.948 48.5009 287.851 47.9476 287.755 47.3943L287.755 47.394L287.755 47.3937L287.755 47.3934L287.754 47.3931L287.754 47.3928L287.754 47.3925L287.754 47.3922L287.754 47.391C287.535 46.1382 287.316 44.8855 287.017 43.6522C286.658 42.1732 286.259 40.666 285.596 39.3093C284.83 37.7406 281.621 37.0004 280.042 37.8234C279.141 38.2926 278.709 39.4173 279.293 40.2344C279.846 41.0074 280.523 41.7976 281.329 42.2576C282.653 43.013 283.083 44.2726 283.191 45.5074C283.393 47.8293 280.957 51.0943 278.591 51.6815C276.439 52.2153 274.246 52.5867 272.055 52.9576C271.537 53.0452 271.02 53.1328 270.504 53.2225C270.467 53.2289 270.43 53.235 270.394 53.241L270.345 53.2491C269.655 53.3631 269.107 53.4537 269.325 54.4645C269.918 57.2084 270.112 59.9728 269.614 62.7638C269.584 62.9333 269.893 63.1992 270.089 63.367C270.339 63.5813 270.603 63.7831 270.866 63.9847L270.866 63.9849C271.351 64.3559 271.835 64.7264 272.235 65.1729C272.893 65.9062 273.506 66.6793 274.119 67.4526L274.119 67.4529L274.119 67.4531L274.119 67.4533L274.12 67.4535L274.12 67.4538L274.12 67.454L274.12 67.4542L274.121 67.4548C274.542 67.986 274.963 68.5174 275.399 69.036C275.513 69.1714 275.971 69.228 276.08 69.1231C276.639 68.5886 277.184 68.0388 277.729 67.489C278.366 66.8453 279.004 66.2016 279.665 65.5826C281.262 64.0863 282.899 62.6314 284.556 61.2019C284.77 61.0168 285.066 60.9261 285.362 60.8353C285.498 60.7935 285.635 60.7516 285.763 60.7005C285.709 60.8244 285.657 60.949 285.604 61.0735C285.461 61.4138 285.317 61.754 285.147 62.0805C285.118 62.1375 285.033 62.1606 284.943 62.1848C284.866 62.2056 284.785 62.2274 284.734 62.2722L284.696 62.3048L284.653 62.3423C284.333 62.6147 284.098 62.815 284.807 63.1529C285.557 63.5102 286.251 63.9838 286.946 64.4573L286.946 64.4576C287.236 64.6554 287.526 64.8532 287.82 65.0424C292.352 67.9598 297.234 69.3297 302.639 68.4431C305.696 67.9417 307.794 66.3148 308.726 63.3054C309.618 60.4226 309.248 59.5839 306.494 58.4254C306.402 58.3865 306.309 58.3479 306.216 58.3094L306.212 58.3077C304.76 57.7035 303.318 57.1034 302.937 55.3228C302.78 54.5907 304.138 53.8003 304.433 54.4881C304.435 54.4923 304.437 54.4966 304.437 54.5008C304.731 55.8435 305.75 56.3074 306.824 56.7911C308.8 57.6809 309.041 57.5564 309.041 55.5274C309.041 52.8712 309.041 52.8712 311.37 52.0436C312.72 51.5643 312.937 51.0956 312.324 49.7846C311.398 47.8049 310.793 45.7879 311.05 43.5494C311.365 40.7908 311.629 38.0233 311.802 35.2526C311.914 33.4721 312.02 31.6501 311.765 29.8997C311.602 28.7789 311.202 27.6925 310.802 26.6064L310.802 26.6051L310.801 26.6038L310.801 26.6026C310.629 26.1366 310.458 25.6707 310.305 25.2021C309.945 24.0983 309.078 23.6548 307.946 24.0629C307.239 24.3179 306.528 24.5637 305.817 24.8095L305.816 24.8099C303.834 25.4947 301.852 26.1798 299.962 27.0633C297.973 27.9934 295.96 29.147 294.413 30.667C293.023 32.0328 289.06 38.9125 289.06 44.0334ZM128.183 258.442L128.227 258.432C130.053 258.027 131.879 257.623 133.701 257.202C133.963 257.142 134.208 257.007 134.452 256.871C134.566 256.809 134.679 256.746 134.794 256.691C134.697 256.634 134.599 256.578 134.5 256.523C134.272 256.395 134.044 256.268 133.835 256.114C133.604 255.944 133.407 255.722 133.216 255.504L133.205 255.492C132.661 254.875 132.109 254.265 131.557 253.654L131.556 253.653L131.555 253.652L131.555 253.652L131.554 253.651L131.553 253.65L131.552 253.649L131.552 253.648L131.552 253.648L131.551 253.648L131.551 253.648L131.551 253.648L131.551 253.647L131.551 253.647L131.551 253.647C130.201 252.155 128.852 250.663 127.62 249.079C126.401 247.513 125.432 245.737 124.476 243.985L124.476 243.985L124.452 243.941C123.981 243.078 123.446 242.713 122.54 243.03C118.688 244.376 114.7 245.11 110.712 245.845C108.631 246.228 106.551 246.611 104.49 247.081C101.112 247.852 84.1062 250.778 82.6253 250.884C81.9041 250.936 81.1829 251.009 80.4619 251.082L80.4617 251.082C79.0603 251.225 77.6594 251.367 76.2598 251.351C72.6828 251.311 69.1766 251.697 65.6733 252.377C64.5688 252.591 63.4484 252.727 62.3284 252.863C61.0494 253.018 59.7708 253.173 58.5168 253.445C54.4789 254.32 53.1261 257.769 54.1664 261.139C54.3661 261.786 55.0798 262.516 55.7203 262.742C58.6413 263.776 61.699 264.045 64.7898 264.069C66.3817 264.081 67.9732 264.155 69.5646 264.229H69.565H69.5654H69.5658H69.5662H69.5665H69.5669H69.5673C70.1737 264.257 70.7802 264.285 71.3866 264.31C73.6653 264.403 75.9438 264.498 78.2224 264.593H78.223H78.2235H78.2241H78.2246H78.2252H78.2258H78.2263C80.0071 264.667 81.7879 264.741 83.5688 264.815C83.6949 264.82 83.8214 264.818 83.9479 264.816H83.9495C84.0755 264.814 84.2016 264.812 84.3273 264.818C84.951 264.843 85.5757 264.886 86.2003 264.928C87.5671 265.022 88.9338 265.115 90.2896 265.031C92.4146 264.899 94.5321 264.648 96.6497 264.397L96.6505 264.397L96.6514 264.397L96.6524 264.397L96.6533 264.397L96.6542 264.397L96.6551 264.396L96.656 264.396C97.6402 264.28 98.6244 264.163 99.6094 264.058C100.213 263.994 100.819 263.941 101.424 263.889C102.522 263.794 103.62 263.699 104.708 263.533L105.255 263.45C108.034 263.029 110.818 262.606 113.559 262.001C115.688 261.531 117.802 260.994 119.963 260.444L119.964 260.444L119.967 260.443L119.97 260.442C121.549 260.041 123.152 259.634 124.804 259.242C124.9 259.215 124.996 259.187 125.091 259.159C125.297 259.098 125.503 259.037 125.713 258.99C126.536 258.806 127.359 258.624 128.183 258.442ZM222.08 317.581C223.389 315.701 224.627 313.769 225.827 311.817C226.918 310.043 227.939 308.224 228.958 306.407C229.87 304.781 230.817 303.174 231.764 301.568L231.765 301.568L231.765 301.567L231.765 301.567L231.765 301.567L231.765 301.566L231.765 301.566L231.766 301.566C233.965 297.836 236.164 294.106 237.929 290.127C238.946 287.835 240.123 285.614 241.301 283.394L241.302 283.392L241.303 283.39L241.304 283.388L241.305 283.386L241.306 283.384L241.307 283.381L241.308 283.379C241.867 282.326 242.426 281.272 242.968 280.21C243.224 279.707 243.486 279.207 243.747 278.706C244.464 277.334 245.18 275.962 245.795 274.546C246.26 273.475 246.668 272.377 247.076 271.279L247.076 271.278C247.702 269.591 248.328 267.905 249.16 266.326C250.496 263.789 251.382 261.109 252.269 258.427C252.557 257.557 252.845 256.686 253.148 255.82C253.195 255.686 253.225 255.545 253.256 255.405L253.271 255.333L253.281 255.288C253.287 255.262 253.293 255.236 253.299 255.21C253.265 255.216 253.231 255.223 253.196 255.229C253.158 255.235 253.121 255.242 253.083 255.248C252.925 255.275 252.768 255.302 252.616 255.347C252.311 255.437 252.009 255.548 251.706 255.658L251.705 255.658L251.705 255.658C251.077 255.887 250.449 256.116 249.807 256.166C247.407 256.355 244.993 256.436 242.585 256.436C241.097 256.435 239.608 256.376 238.119 256.318H238.119H238.118H238.118H238.117H238.117H238.116H238.116C237.155 256.28 236.195 256.242 235.234 256.22C235.055 256.215 234.776 256.439 234.704 256.621C234.616 256.843 234.528 257.065 234.44 257.288C233.838 258.806 233.236 260.326 232.711 261.871C231.401 265.719 230.131 269.582 228.877 273.448C227.284 278.358 225.324 283.095 223.164 287.796C221.161 292.154 219.668 296.795 218.72 301.572C218.278 303.802 217.623 305.991 216.969 308.178C216.811 308.705 216.653 309.232 216.499 309.76C216.014 311.414 215.479 313.054 214.943 314.693C214.75 315.285 214.557 315.877 214.366 316.47C213.928 317.829 214.313 319.097 215.38 319.262C216.57 319.446 217.798 319.379 219.136 319.294C220.351 319.126 221.394 318.567 222.08 317.581ZM47.2679 270.884C48.5881 268.712 49.948 266.746 52.6317 266.159C53.6281 265.941 53.6831 265.421 53.0228 264.587C52.878 264.404 52.7251 264.222 52.5714 264.038C52.0196 263.38 51.4573 262.71 51.2192 261.948C50.9618 261.124 51.0121 260.193 51.0614 259.279L51.0614 259.278C51.0741 259.043 51.0867 258.809 51.094 258.578C51.1815 255.814 51.9615 253.456 54.6968 252.113C55.5083 251.715 55.9955 251.115 55.1815 249.941C53.3472 247.293 50.9161 245.42 48.2358 243.796C47.1852 243.16 46.2178 243.538 45.8001 244.649C45.6186 245.132 45.4349 245.614 45.2512 246.097L45.2511 246.097C44.6707 247.621 44.0901 249.145 43.5754 250.691C43.0102 252.389 42.4726 254.095 41.9349 255.802L41.9348 255.802L41.9345 255.803C41.3669 257.605 40.7993 259.407 40.1994 261.198C39.7039 262.677 39.2678 264.173 38.8315 265.669C38.0432 268.373 37.2544 271.078 36.1143 273.688C33.489 279.7 31.367 285.916 30.3629 292.448C30.3098 292.793 30.3837 293.386 30.588 293.49C30.8986 293.648 31.4292 293.59 31.769 293.424C32.3355 293.147 32.9306 292.801 33.3272 292.327C34.5722 290.84 35.7303 289.28 36.9221 287.494C37.909 285.915 38.8997 284.337 39.8904 282.76L39.892 282.757L39.8923 282.757C42.3704 278.811 44.8484 274.866 47.2679 270.884ZM232.391 321.909L232.387 321.908C230.188 321.372 228.003 320.841 226.729 318.567C226.128 317.495 225.603 317.576 224.996 318.755C224.47 319.776 223.819 320.672 222.781 321.205C222.228 321.489 221.643 321.717 221.056 321.925C218.145 322.957 215.313 323.088 212.76 321.001C211.516 319.983 211.111 320.076 210.14 321.343C208.569 323.391 207.764 325.78 206.963 328.158L206.895 328.361C206.031 330.922 206.5 331.457 209.221 331.457H258.024C258.126 331.457 258.233 331.466 258.339 331.475C258.584 331.496 258.828 331.517 259.022 331.428C259.273 331.312 259.607 330.765 259.565 330.719C259.386 330.523 259.211 330.315 259.035 330.106C258.498 329.469 257.954 328.822 257.264 328.472C255.887 327.773 254.343 327.359 252.832 326.977C247.257 325.565 241.665 324.215 235.827 322.842C235.543 322.763 235.259 322.681 234.976 322.6C234.354 322.422 233.732 322.244 233.106 322.085C232.977 322.053 232.849 322.021 232.72 321.989C232.61 321.962 232.5 321.935 232.391 321.909ZM328.548 228.275C328.605 228.489 328.861 228.65 329.117 228.81C329.234 228.884 329.352 228.958 329.451 229.037C329.515 228.946 329.595 228.856 329.675 228.766C329.849 228.571 330.023 228.375 330.033 228.171C330.046 227.9 330.065 227.626 330.083 227.351C330.154 226.284 330.226 225.205 330.015 224.191C329.603 222.207 328.955 220.255 328.219 218.363C328.035 217.891 328.254 217.666 328.461 217.454C328.61 217.3 328.752 217.154 328.73 216.926C328.834 216.993 328.943 217.055 329.054 217.116L329.145 217.166C329.468 217.343 329.791 217.521 330.004 217.787C330.191 218.021 330.277 218.333 330.364 218.648C330.416 218.835 330.468 219.024 330.542 219.198C330.644 219.437 330.745 219.677 330.847 219.916L330.853 219.931L330.854 219.933C331.357 221.124 331.86 222.317 332.442 223.469C332.546 223.674 332.857 223.773 333.167 223.873C333.31 223.919 333.454 223.964 333.576 224.021C333.629 223.904 333.696 223.788 333.762 223.671C333.908 223.417 334.054 223.162 334.052 222.909C334.04 221.762 333.95 220.611 333.813 219.471C333.792 219.291 333.773 219.11 333.754 218.928C333.668 218.105 333.58 217.267 333.263 216.539C332.298 214.322 331.273 212.111 330.042 210.035C329.262 208.721 328.203 207.492 327.027 206.519C325.983 205.654 324.781 204.977 323.583 204.302L323.582 204.301L323.581 204.3C323.261 204.12 322.942 203.94 322.627 203.757C320.695 202.636 318.737 201.561 316.774 200.495C316.753 200.484 316.732 200.472 316.711 200.46L316.709 200.459C316.48 200.328 316.209 200.173 315.967 200.701C315.513 201.694 315.031 202.675 314.549 203.655C313.797 205.186 313.045 206.717 312.4 208.291L312.378 208.344L312.356 208.397C312.103 208.998 311.656 210.06 313.025 210.647C314.495 211.277 315.94 212.183 317.099 213.282C320.509 216.514 322.047 220.833 323.575 225.123L323.695 225.459C323.989 226.284 324.199 227.139 324.41 227.994L324.41 227.994L324.41 227.994L324.41 227.995L324.41 227.995L324.41 227.995L324.41 227.995L324.41 227.996L324.41 227.997L324.411 227.997L324.411 227.998L324.411 227.998C324.511 228.404 324.611 228.809 324.719 229.212C324.759 229.358 324.806 229.503 324.853 229.648C324.874 229.715 324.896 229.781 324.917 229.849C324.943 229.829 324.972 229.81 325.001 229.792C325.05 229.761 325.103 229.731 325.155 229.701C325.335 229.598 325.514 229.496 325.577 229.344C326.221 227.797 326.415 226.241 325.935 224.559C325.554 223.223 325.416 221.808 325.281 220.415L325.268 220.288C325.252 220.118 325.489 219.923 325.726 219.728C325.836 219.637 325.945 219.547 326.03 219.46C326.087 219.535 326.153 219.608 326.219 219.68C326.363 219.838 326.507 219.997 326.558 220.18C326.667 220.571 326.767 220.963 326.87 221.362L326.87 221.364C327.057 222.091 327.249 222.841 327.503 223.641C327.555 223.879 327.606 224.118 327.657 224.356C327.692 224.522 327.727 224.689 327.762 224.855C328.003 226 328.245 227.146 328.548 228.275ZM312.994 202.429C313.176 201.991 313.393 201.571 313.61 201.151C314.136 200.134 314.662 199.115 314.691 197.833C314.718 196.659 314.505 196.03 313.558 195.452C312.556 194.84 311.414 194.471 310.522 195.175C308.496 196.774 306.626 198.631 305.542 201.009C304.859 202.507 304.367 204.093 303.876 205.678L303.876 205.678L303.876 205.679C303.707 206.222 303.539 206.765 303.363 207.305C303.263 207.612 303.31 207.995 303.376 208.325C303.767 210.304 305.243 211.282 306.885 212.111C307.752 212.549 308.393 212.332 308.782 211.475C308.935 211.138 309.087 210.8 309.239 210.461C309.35 210.214 309.461 209.966 309.573 209.717L309.576 209.71C310.128 208.474 310.691 207.216 311.317 205.903C311.49 205.549 311.668 205.198 311.846 204.846L311.848 204.841L311.848 204.841C312.251 204.046 312.653 203.25 312.994 202.429ZM27.5839 291.755C28.4886 289.599 29.3479 287.415 30.0727 285.193C30.5574 283.707 30.9847 282.202 31.4121 280.697C31.7992 279.335 32.1862 277.972 32.6158 276.623C33.2901 274.505 33.9973 272.399 34.7046 270.292L34.7048 270.291C35.3657 268.322 36.0266 266.353 36.6607 264.376C37.8477 260.674 39.0054 256.963 40.1631 253.251L40.1637 253.249L40.1663 253.241C40.6858 251.576 41.2053 249.91 41.7275 248.246C41.8653 247.806 42.0051 247.368 42.1449 246.929C42.5162 245.764 42.8875 244.6 43.2204 243.424C43.2699 243.249 43.1694 243.032 43.0689 242.815C43.0224 242.715 42.976 242.614 42.9443 242.518C42.8415 242.586 42.7225 242.646 42.6036 242.707C42.3463 242.838 42.0891 242.969 41.9951 243.175C41.1047 245.124 40.2346 247.087 39.4662 249.087C38.7589 250.928 38.1275 252.799 37.4964 254.67C37.3908 254.983 37.2852 255.296 37.1792 255.608C37.0618 255.955 36.9439 256.302 36.8261 256.648L36.8259 256.649C36.1634 258.597 35.5008 260.546 34.911 262.516C34.3005 264.555 33.722 266.604 33.1435 268.653L33.1429 268.655L33.1426 268.656L33.1425 268.657C32.7189 270.157 32.2953 271.657 31.8592 273.153C31.6991 273.703 31.5405 274.252 31.3818 274.802L31.3817 274.803C30.7147 277.115 30.0474 279.428 29.2704 281.702C28.7866 283.119 28.275 284.526 27.7614 285.938L27.7613 285.938L27.761 285.939C27.0438 287.912 26.3228 289.895 25.6681 291.929C26.6175 293.182 26.9805 293.193 27.5839 291.755ZM242.023 336.145C242.598 336.105 243.172 336.063 243.747 336.02C245.014 335.927 246.282 335.833 247.551 335.771C249.227 335.689 250.902 335.616 252.578 335.543C254.791 335.446 257.003 335.35 259.215 335.233C259.39 335.224 259.555 335.05 259.721 334.876C259.798 334.795 259.876 334.714 259.954 334.65C259.887 334.609 259.821 334.565 259.756 334.52C259.603 334.417 259.451 334.314 259.283 334.257C259.152 334.213 259.003 334.224 258.853 334.235C258.787 334.24 258.721 334.244 258.656 334.244H208.377C208.298 334.244 208.211 334.234 208.124 334.224C207.932 334.202 207.741 334.18 207.635 334.265C207.275 334.556 206.951 334.928 206.732 335.332C206.686 335.417 207.123 335.93 207.393 335.99C208.141 336.156 208.917 336.259 209.683 336.261C220.421 336.277 231.159 336.271 242.023 336.145ZM314.481 340.053L314.476 340.055L314.476 340.055L314.472 340.057C310.627 341.569 306.802 343.074 303.03 344.697C300.452 345.806 297.869 345.977 295.184 345.897C294.956 345.891 294.729 345.839 294.502 345.788C294.258 345.733 294.015 345.678 293.771 345.678C293.574 345.678 293.378 345.787 293.181 345.895C293.093 345.944 293.004 345.993 292.916 346.032C292.962 346.104 293.004 346.181 293.046 346.258C293.139 346.428 293.232 346.598 293.369 346.72C293.756 347.068 294.161 347.424 294.618 347.663C298.097 349.486 300.108 354.463 298.879 358.197C298.275 360.03 297.545 361.976 296.322 363.403C295.328 364.564 293.595 365.33 292.048 365.732C289.605 366.366 287.056 366.386 284.593 365.492C282.44 364.711 280.895 363.265 279.755 361.312C276.985 356.565 278.122 352.446 281.068 348.613C281.455 348.11 282.078 347.793 282.707 347.474C283.058 347.295 283.411 347.116 283.725 346.903C283.948 346.752 284.121 346.527 284.294 346.302C284.372 346.2 284.451 346.098 284.535 346.002C284.396 345.968 284.258 345.927 284.119 345.886C283.802 345.793 283.485 345.699 283.164 345.686C282.944 345.676 282.721 345.733 282.498 345.791C282.29 345.844 282.082 345.897 281.875 345.897L274.053 345.902H274.011C256.27 345.913 238.529 345.924 220.787 345.896C216.5 345.889 212.214 345.825 207.927 345.761C205.404 345.723 202.882 345.686 200.36 345.66C198.495 345.64 196.631 345.645 194.766 345.65C193.918 345.653 193.07 345.655 192.222 345.655C192.117 345.655 192.012 345.655 191.907 345.654L191.674 345.653C191.168 345.65 190.661 345.647 190.155 345.667C190.05 345.671 189.947 345.743 189.844 345.815C189.797 345.848 189.749 345.881 189.702 345.907C189.747 345.94 189.792 345.973 189.838 346.005C189.935 346.076 190.032 346.147 190.134 346.211C190.559 346.476 191.005 346.719 191.451 346.963C192.41 347.487 193.368 348.01 194.12 348.745C199.266 353.768 197.606 363.697 189.908 365.687C183.679 367.297 178.175 365.224 176.326 357.825C175.186 353.263 178.234 347.824 182.844 346.399C183.043 346.337 183.215 346.187 183.387 346.036C183.467 345.966 183.547 345.897 183.63 345.836C183.545 345.79 183.461 345.731 183.376 345.673C183.194 345.547 183.012 345.422 182.83 345.421C176.753 345.397 171.058 343.629 165.472 341.516C157.97 338.677 150.675 335.366 143.921 330.996L143.792 330.913C142.545 330.107 141.257 329.276 140.816 327.591C139.992 324.436 141.586 322.003 144.531 321.203C147.666 320.351 150.673 321.248 153.634 322.198C158.76 323.843 163.883 325.5 169.006 327.156L169.042 327.168C171.898 328.092 174.754 329.015 177.611 329.937L177.98 330.056L177.984 330.057L177.986 330.058C179.535 330.558 181.084 331.058 182.646 331.514C183.219 331.681 183.837 331.766 184.434 331.768C187.013 331.778 189.592 331.779 192.17 331.78H192.198C194.753 331.781 197.309 331.783 199.864 331.792C200.245 331.794 200.898 331.9 200.954 332.092C201.073 332.508 201.072 332.958 201.071 333.408C201.07 333.584 201.07 333.759 201.076 333.933C201.057 333.926 201.037 333.918 201.017 333.91C200.999 333.902 200.981 333.894 200.963 333.886L200.962 333.885C200.88 333.848 200.798 333.81 200.719 333.817C200.429 333.844 200.14 333.879 199.85 333.915L199.848 333.915L199.848 333.915C199.416 333.968 198.985 334.021 198.552 334.044C197.048 334.122 195.545 334.191 194.041 334.261H194.041H194.04C192.03 334.355 190.02 334.448 188.012 334.561C184.456 334.759 181.104 333.757 177.782 332.764L177.751 332.755C175.173 331.985 172.628 331.107 170.082 330.228L170.08 330.228L170.08 330.227L170.079 330.227L170.078 330.227L170.077 330.227L170.076 330.226L170.075 330.226L170.075 330.226C168.637 329.73 167.2 329.234 165.757 328.757C163.952 328.161 162.142 327.58 160.333 326.998L160.321 326.994C158.23 326.322 156.138 325.65 154.055 324.955C153.528 324.78 153.015 324.546 152.503 324.312C151.687 323.94 150.875 323.57 150.022 323.443C148.454 323.21 146.775 323.336 145.212 323.645C144.601 323.766 143.916 324.738 143.724 325.447C143.466 326.393 143.641 327.325 144.748 328.028C149.883 331.294 155.297 334.003 160.856 336.46C165.907 338.692 171.121 340.432 176.448 341.851C177.302 342.078 178.226 342.097 179.12 342.114C181.161 342.152 183.202 342.177 185.242 342.203C188.69 342.246 192.137 342.288 195.583 342.393C199.398 342.51 203.211 342.695 207.024 342.88C208.797 342.966 210.57 343.052 212.343 343.131C213.894 343.201 215.444 343.268 216.994 343.335L217.058 343.338H217.058H217.059H217.06H217.06H217.061H217.062H217.062C219.34 343.436 221.618 343.535 223.896 343.64C224.385 343.663 224.874 343.703 225.363 343.744L225.365 343.744L225.366 343.744L225.367 343.745L225.368 343.745L225.369 343.745L225.37 343.745L225.371 343.745C226.237 343.817 227.102 343.889 227.964 343.862C228.72 343.837 229.472 343.733 230.226 343.628L230.226 343.628C230.878 343.537 231.529 343.447 232.183 343.408C232.625 343.382 233.071 343.448 233.519 343.514L233.519 343.514C233.882 343.567 234.245 343.62 234.607 343.625C235.043 343.631 235.48 343.638 235.916 343.645H235.918C237.927 343.677 239.937 343.71 241.941 343.614C243.672 343.531 245.4 343.395 247.128 343.259C248.793 343.127 250.459 342.996 252.127 342.913C252.622 342.888 253.123 343.011 253.625 343.135C254.066 343.243 254.509 343.352 254.952 343.361C257.986 343.424 261.022 343.417 264.057 343.375C267.016 343.334 269.976 343.256 272.931 343.115C273.517 343.087 274.106 342.985 274.694 342.884C275.563 342.734 276.427 342.584 277.27 342.676C280.652 343.043 284.044 343.136 287.433 343.229H287.434C289.762 343.293 292.087 343.357 294.407 343.509C298.596 343.784 302.306 342.783 305.98 341.281C310.952 339.248 315.884 337.095 320.723 334.765C323.749 333.308 326.636 331.553 329.512 329.805L329.512 329.805L330.038 329.485C331.872 328.371 333.271 326.8 333.846 324.641C334.136 323.552 333.53 322.719 332.438 322.695C329.053 322.62 325.962 323.796 322.888 324.979C318.419 326.7 313.968 328.471 309.532 330.275C307.742 331.004 305.966 331.766 304.191 332.528L304.189 332.529L304.187 332.529L304.185 332.53L304.184 332.531L304.182 332.531L304.18 332.532L304.177 332.534L304.169 332.537C302.839 333.108 301.509 333.678 300.173 334.235C299.706 334.429 299.168 334.539 298.662 334.541C294.428 334.558 290.195 334.557 285.962 334.555C284.799 334.555 283.636 334.554 282.473 334.554C281.308 334.554 280.143 334.555 278.977 334.555C275.828 334.556 272.679 334.557 269.529 334.551C268.451 334.549 267.373 334.513 266.296 334.473C266.227 334.471 266.115 334.299 266.108 334.199C266.105 334.15 266.103 334.1 266.103 334.05C266.102 333.96 266.106 333.87 266.109 333.779L266.109 333.779V333.778C266.117 333.58 266.124 333.383 266.09 333.193C265.943 332.385 266.289 332.26 267.034 332.265C272.346 332.3 277.659 332.317 282.97 332.274C283.498 332.27 284.026 332.266 284.555 332.262C289.052 332.229 293.551 332.196 298.039 331.967C299.463 331.895 300.896 331.275 302.259 330.687C302.375 330.636 302.491 330.586 302.607 330.537C310.382 327.2 318.237 324.069 326.33 321.585C327.796 321.135 329.357 320.966 330.903 320.798H330.904L330.921 320.796L330.937 320.794L331.173 320.768L331.402 320.743C331.478 320.735 331.554 320.726 331.63 320.718L331.778 320.701C332.832 320.579 333.95 320.502 334.972 320.719C336.596 321.064 337.27 322.623 336.773 324.251C335.871 327.211 334.067 329.464 331.444 331.063C329.589 332.193 327.728 333.314 325.857 334.44L325.833 334.454L325.812 334.467L325.801 334.474L325.789 334.481C324.053 335.526 322.309 336.576 320.552 337.645C318.535 338.458 316.521 339.251 314.513 340.041L314.481 340.053ZM294.685 351.331C291.729 348.112 288.313 347.52 284.24 349.875C281.886 351.236 280.853 354.436 281.051 356.463C281.264 358.646 282.355 360.457 284.022 361.875C286.021 363.576 288.358 363.579 290.766 363.061C296.114 361.911 297.718 354.963 294.685 351.331ZM179.33 354.863C179.33 355.093 179.326 355.324 179.322 355.554C179.313 356.052 179.304 356.551 179.337 357.047C179.607 361.135 184.351 364.311 188.534 363.109C191.512 362.253 193.229 360.474 193.837 357.35C194.77 352.558 191.796 349.107 187.687 348.512C183.628 347.924 180.289 350.165 179.33 354.863ZM212.104 369.365H221.248H267.926C270.121 369.365 272.316 369.365 274.512 369.366C284.932 369.367 295.352 369.369 305.772 369.333C306.452 369.33 307.201 368.938 307.762 368.553C307.912 368.45 307.592 367.628 307.281 367.275C307.071 367.036 306.499 366.95 306.089 366.949C272.764 366.94 239.44 366.937 206.115 366.935C193.057 366.934 179.999 366.934 166.941 366.932C166.458 366.932 165.974 366.9 165.491 366.867L165.49 366.867C165.317 366.855 165.144 366.844 164.971 366.834C164.17 366.787 163.133 367.853 163.463 368.465C163.938 369.345 164.912 369.366 165.866 369.366C181.234 369.365 196.602 369.365 212.043 369.365H212.053H212.063H212.073H212.084H212.094H212.104ZM128.408 369.991L122.05 369.991H122.039H122.029H122.018H122.008H121.997C112.734 369.991 103.537 369.992 94.3413 369.987C94.2445 369.987 94.1461 369.99 94.0479 369.994C93.4261 370.014 92.8058 370.034 92.5578 369.225C92.2706 368.286 92.6644 367.604 93.7106 367.482C93.9089 367.459 94.1114 367.465 94.3138 367.471H94.3145C94.4075 367.474 94.5005 367.477 94.5931 367.477L104.113 367.477C120.538 367.477 136.964 367.477 153.39 367.474C153.444 367.474 153.497 367.474 153.551 367.473C154.399 367.468 155.201 367.464 155.166 368.61C155.136 369.559 154.573 369.991 153.265 369.991C147.108 369.991 140.951 369.991 134.741 369.991H134.721H134.701H134.681H128.408ZM348.338 369.995L355.091 369.995C356.512 369.995 357.926 369.995 359.337 369.995H359.35H359.362H359.375H359.388C364.767 369.996 370.084 369.997 375.401 369.985C375.955 369.984 376.518 369.873 377.057 369.747C377.206 369.712 377.355 369.452 377.391 369.277C377.664 367.924 377.225 367.482 375.64 367.482C356.046 367.482 336.451 367.482 316.856 367.482C316.763 367.482 316.67 367.478 316.576 367.474C316.373 367.465 316.169 367.456 315.974 367.489C314.895 367.672 314.509 368.421 314.939 369.328C315.267 370.023 315.876 370.01 316.488 369.996C316.573 369.994 316.658 369.993 316.742 369.993C327.251 369.995 337.759 369.995 348.338 369.995ZM302.733 34.3747C302.954 34.3523 303.987 34.5132 305.262 34.7117L305.262 34.7117C307.005 34.9831 309.198 35.3245 310.374 35.3623C311.552 35.4002 310.434 36.6623 310.24 36.6706C307.64 36.7811 302.006 35.064 302.733 34.3747ZM306.529 44.331C305.429 43.914 305.955 40.5403 307.047 40.5403C308.125 40.5403 307.604 44.738 306.529 44.331ZM290.67 353.675C291.622 355.836 291.557 356.719 290.424 357.894C289.65 358.696 288.247 358.832 287.368 358.191C286.429 357.506 285.994 355.885 286.447 354.762C287.243 352.785 288.994 352.302 290.67 353.675ZM188.725 353.841C187.247 352.472 185.773 352.549 183.964 354.322C183.306 355.848 183.629 357.465 186.071 357.896C187.387 358.128 188.166 357.739 188.892 356.951C189.648 356.132 189.432 354.496 188.725 353.841Z" fill="#00160A"/>
<path fill-rule="evenodd" clip-rule="evenodd" d="M149 330.803C154.815 334.358 174.072 343.292 187.424 343.639H299C299 343.639 355.929 322.806 313.473 330.803C311.07 331.256 303.065 336.141 292 337.072C271.773 338.774 190 338.5 190 338.5C190 338.5 147.47 329.868 149 330.803Z" fill="white"/>
<path fill-rule="evenodd" clip-rule="evenodd" d="M274.534 78.7271C272.335 78.0813 271.813 74.7451 269.595 74.1688C267.4 73.5987 265.292 76.1984 263.104 75.6048C261.616 75.2011 260.921 73.5576 260.097 72.2544C259.296 70.9865 257.607 69.8419 256.402 70.6603L256.302 70.7331C254.63 72.0522 252.122 71.2189 250.437 69.9144C248.753 68.6099 247.324 66.8515 245.302 66.1805C246.364 65.1322 248.203 65.8929 249.231 66.9744C250.26 68.056 251.096 69.481 252.524 69.9137C254.712 70.5766 257.177 68.5436 259.243 69.5245C260.527 70.1344 261.049 71.6411 261.818 72.8371C262.587 74.033 264.26 75.0354 265.352 74.1248C268.002 71.9148 272.737 73.3158 273.758 76.6118C274.054 77.5678 275.362 78.9703 274.534 78.7271Z" fill="white"/>
<path fill-rule="evenodd" clip-rule="evenodd" d="M43.7001 257.81C43.8429 257.651 44.0164 257.539 44.1239 257.583C45.346 258.089 46.0509 257.649 46.4221 256.442C46.4837 256.241 46.7975 256.118 46.9948 255.959C47.1762 256.201 47.5103 256.442 47.5111 256.685C47.5136 257.49 47.8629 257.868 48.6277 258.108C48.9538 258.21 49.1467 258.732 49.4001 259.063C49.1448 259.122 48.7598 259.101 48.6615 259.257C48.4619 259.575 48.3573 259.984 48.3271 260.364C48.3015 260.687 48.4634 261.021 48.4918 261.354C48.529 261.791 48.4588 262.112 47.9435 261.671C46.9148 260.791 46.022 261.121 45.1434 261.951C44.9303 262.152 44.5554 262.184 44.255 262.294C44.3099 262.021 44.3263 261.732 44.4263 261.476C44.9505 260.134 44.5884 258.981 43.7001 257.81Z" fill="#FFB61D"/>
<path fill-rule="evenodd" clip-rule="evenodd" d="M220.694 326.742L219.156 326.231C219.073 326.204 219.063 326.09 219.14 326.049L220.61 325.25V323.414C220.61 323.328 220.711 323.282 220.776 323.338L221.992 324.407L224.004 323.347C224.092 323.301 224.186 323.397 224.138 323.484L222.996 325.568L225.179 327.849C225.25 327.923 225.177 328.043 225.079 328.014L222.073 327.147L220.881 329.249C220.83 329.338 220.694 329.302 220.694 329.199V328.16V326.742Z" fill="#FFB61D"/>
<ellipse cx="295.767" cy="52.5847" rx="4.43335" ry="4.43494" fill="#FFB61D"/>
<path fill-rule="evenodd" clip-rule="evenodd" d="M232.333 92.0601L232.843 92.847L233.011 93.1012C234.08 94.6691 235.704 96.2104 237.508 95.7536C242.312 94.5375 247.778 96.6599 250.501 100.799C251.848 102.846 254.839 102.445 257.285 101.92L257.607 101.85C260.059 101.306 263.451 101.562 264.071 103.939L264.103 104.076C264.389 105.445 266.111 105.861 267.529 105.825L267.968 105.809C271.533 105.809 272 107.77 272.001 107.569C272.001 107.569 264.163 106.975 262.513 104.315L262.413 104.146C261.362 102.305 258.709 102.604 256.634 103.23L256.062 103.409L255.776 103.492C253.75 104.06 251.291 104.266 250.274 102.517C247.941 98.5038 243.08 96.1193 238.478 96.7298C237.293 96.887 236.065 97.2198 234.931 96.8441C232.218 95.9453 231.863 91.7543 229.194 90.7326C225.825 89.4435 222.564 94.3415 219.078 93.4168C221.198 91.7988 223.549 90.4829 226.037 89.5214C226.871 89.1991 227.756 88.9123 228.643 89.0199C230.287 89.2192 231.39 90.6324 232.333 92.0601ZM275.133 96.8956C274.796 97.9315 274.549 98.8517 274.384 99.6323C274.042 97.3823 271.807 95.3018 269.699 96.0304L269.578 96.0756C268.241 96.6086 266.824 95.5022 265.959 94.3512L265.752 94.0711L265.44 93.6425C264.741 92.6872 263.988 91.7449 262.869 91.4729C260.822 90.9755 259.016 93.014 256.924 93.2572C252.082 93.8202 249.661 85.1489 244.907 86.2249C243.867 86.4602 242.969 87.1726 241.913 87.3169C238.998 87.7153 237.434 84.0074 234.977 82.3882C233.128 81.1695 230.519 81.2432 228.743 82.5643C228.832 80.4469 231.711 79.5139 233.676 80.3105C235.641 81.1072 236.99 82.8983 238.622 84.252C240.213 85.5719 242.574 86.4784 244.306 85.4045L244.438 85.3179C246.522 83.8748 249.31 85.7053 250.938 87.6492L251.529 88.3574C253.014 90.1264 254.712 91.9642 256.94 91.7946C258.985 91.6388 260.726 89.7325 262.754 90.0374C265.711 90.4816 266.918 95.2471 269.89 94.9246C271.8 94.7173 273.787 95.3589 275.216 96.6441L275.133 96.8956ZM276.667 86.9246C276.19 87.5933 275.712 88.1304 275.232 88.536L275.072 88.6663L274.672 88.3804C272.729 86.9992 270.606 85.6551 268.243 85.7107C267.38 85.7311 266.496 85.9396 265.667 85.6963C263.468 85.0506 262.946 81.7144 260.728 81.138C258.534 80.5679 256.425 83.1676 254.237 82.574C252.749 82.1703 252.054 80.5269 251.23 79.2237C250.429 77.9557 248.74 76.8111 247.535 77.6295L247.436 77.7023C245.763 79.0214 243.255 78.1881 241.57 76.8836C239.886 75.5792 238.458 73.8208 236.435 73.1497C237.497 72.1015 239.337 72.8621 240.365 73.9437C241.393 75.0252 242.229 76.4503 243.657 76.8829C245.846 77.5458 248.31 75.5129 250.376 76.4937C251.66 77.1037 252.182 78.6104 252.951 79.8063C253.72 81.0022 255.394 82.0046 256.485 81.0941C259.135 78.8841 263.87 80.285 264.891 83.581C265.187 84.537 266.46 84.7595 267.442 84.5674C268.425 84.3754 269.435 83.9468 270.389 84.2477C271.604 84.6304 272.226 86.0429 273.396 86.5452C274.613 87.0676 276.068 86.4033 276.882 85.3517L276.964 85.2415C277.619 84.3237 277.312 86.0208 276.667 86.9246Z" fill="#FFB61D"/>
<path d="M236.868 66.9407C261.645 50.0809 279.617 63.9889 279.617 82.679" stroke="#00160A" stroke-width="7" stroke-linecap="round" stroke-linejoin="round"/>
<path d="M229.023 59.8475C229.347 58.5714 230.411 56.8332 229.079 55.5239C228.088 54.5495 226.89 55.4021 225.763 55.1163" stroke="#00160A" stroke-width="3" stroke-linecap="round" stroke-linejoin="round"/>
<path d="M184.3 138.749C184.556 139.593 190.636 123.237 195.7 116.575C198.454 112.951 215.632 94.472 216.283 93.7663C216.935 93.0606 236.377 68.4185 236.867 68.4238C237.356 68.429 223.667 53.4162 223.667 53.4162C222.084 51.7267 217.967 48.6011 214.167 49.6148C210.367 50.6285 210.684 52.5715 211.317 53.4162C200.867 61.8637 177.687 83.7639 168.567 103.784C157.167 128.81 184.044 137.906 184.3 138.749Z" stroke="#00160A" stroke-width="3" stroke-linecap="round" stroke-linejoin="round"/>
<path d="M196.967 91.0191C196.967 91.0191 192.699 90.4894 191.666 91.0191C190.633 91.5489 182.083 101.686 182.083 101.686C183.033 103.903 183.938 105.209 185.567 107.071C187.783 109.605 190.317 111.506 192.533 112.14C192.533 112.14 200.767 101.719 201.378 101.052C201.989 100.385 201.378 95.0335 201.378 95.0335L196.967 91.0191Z" fill="white" stroke="black" stroke-linecap="round" stroke-linejoin="round"/>
<path d="M198.663 89.2863L196.693 91.1149L201.287 95.4072L202.94 93.5668L198.663 89.2863Z" fill="#404746" stroke="black" stroke-linecap="round" stroke-linejoin="round"/>
<path d="M193.483 112.457C185.75 108.36 184.933 106.438 181.45 101.052C176.7 106.438 175.75 111.823 175.75 111.823C175.117 115.941 174.112 116.031 181.45 121.01C183.983 122.729 189.539 117.215 193.483 112.457Z" fill="#8E8E8E" stroke="#00160A" stroke-width="2" stroke-linecap="round" stroke-linejoin="round"/>
<path d="M187.15 132.414C182.39 130.792 180.863 131.587 179.867 135.582L184.3 137.799L187.15 132.414Z" fill="#00160A" stroke="#00160A" stroke-linecap="round" stroke-linejoin="round"/>
<path d="M232.117 63.9889C229.202 68.0877 229.209 70.1274 232.75 72.2252L234.017 70.6413L236.233 68.4238L232.117 63.9889Z" fill="#00160A" stroke="#00160A" stroke-linecap="round" stroke-linejoin="round"/>
<path fill-rule="evenodd" clip-rule="evenodd" d="M251.168 112.06L251.534 112.168C252.026 112.318 252.395 112.539 252.826 112.904L253.04 113.092L253.31 113.338C253.441 113.457 253.544 113.547 253.649 113.633C254.367 114.222 255.18 114.587 256.536 114.802C257.446 114.947 258.087 114.802 259.193 114.287L259.592 114.096C261.379 113.234 262.418 112.993 264.093 113.379C265.525 113.708 266.183 114.262 266.717 115.305L266.852 115.581C267.108 116.116 267.933 116.609 268.585 116.999C269.073 117.291 269.463 117.525 269.443 117.673C269.396 118.02 266.375 117.459 265.774 116.26L265.643 115.991C265.253 115.185 264.896 114.863 263.81 114.614C262.536 114.321 261.763 114.474 260.34 115.143L259.942 115.334C258.498 116.028 257.615 116.257 256.338 116.054C254.759 115.803 253.737 115.344 252.846 114.613C252.784 114.562 252.723 114.511 252.66 114.456L252.13 113.978C251.758 113.647 251.506 113.484 251.164 113.38L250.955 113.317C250.071 113.057 248.048 113.73 246.573 114.219L246.573 114.219C245.648 114.527 244.939 114.762 244.862 114.651C244.696 114.412 249.407 111.587 251.168 112.06ZM250.952 121.69L251.292 121.784C251.747 121.916 252.09 122.111 252.49 122.432L252.687 122.596L252.938 122.813C253.06 122.918 253.155 122.996 253.252 123.072C253.918 123.589 254.672 123.91 255.93 124.1C256.774 124.227 257.368 124.099 258.394 123.647L258.764 123.479C260.421 122.721 261.384 122.51 262.938 122.848C264.266 123.138 264.876 123.625 265.371 124.541L265.496 124.784C265.734 125.254 266.499 125.688 267.103 126.03C267.556 126.287 267.918 126.492 267.899 126.623C267.856 126.927 265.054 126.435 264.496 125.38L264.376 125.144C264.014 124.436 263.683 124.153 262.675 123.934C261.494 123.676 260.777 123.811 259.458 124.399L259.089 124.567C257.75 125.177 256.93 125.378 255.746 125.199C254.282 124.979 253.335 124.576 252.508 123.933C252.45 123.889 252.394 123.844 252.336 123.795L251.844 123.375C251.499 123.084 251.265 122.941 250.949 122.849L250.754 122.794C249.934 122.566 248.058 123.157 246.691 123.587L246.691 123.587L246.691 123.587L246.69 123.587C245.833 123.857 245.175 124.064 245.104 123.967C244.95 123.757 249.319 121.274 250.952 121.69ZM251.581 131.922L251.26 131.827C249.718 131.411 245.592 133.894 245.737 134.104C245.804 134.201 246.425 133.994 247.236 133.724C248.527 133.294 250.299 132.703 251.073 132.931L251.257 132.987C251.556 133.078 251.777 133.221 252.103 133.512L252.567 133.933C252.622 133.981 252.675 134.026 252.729 134.07C253.51 134.713 254.405 135.116 255.788 135.336C256.906 135.515 257.68 135.314 258.945 134.704L259.293 134.536C260.54 133.948 261.216 133.813 262.332 134.071C263.284 134.29 263.596 134.573 263.938 135.281L264.052 135.517C264.578 136.572 267.225 137.064 267.266 136.76C267.284 136.629 266.942 136.424 266.514 136.167C265.943 135.825 265.221 135.391 264.997 134.921L264.878 134.678C264.41 133.762 263.834 133.275 262.581 132.985C261.113 132.647 260.203 132.858 258.638 133.616L258.289 133.784C257.32 134.236 256.758 134.364 255.962 134.237C254.773 134.047 254.061 133.726 253.433 133.209C253.341 133.133 253.251 133.055 253.136 132.95L252.899 132.733L252.713 132.569C252.335 132.248 252.011 132.053 251.581 131.922ZM251.26 143.865L251.581 143.959C252.011 144.091 252.335 144.286 252.713 144.606L252.899 144.771L253.136 144.988C253.251 145.092 253.341 145.171 253.433 145.247C254.061 145.764 254.773 146.085 255.962 146.274C256.758 146.401 257.32 146.274 258.289 145.821L258.638 145.654C260.203 144.896 261.113 144.685 262.581 145.023C263.834 145.312 264.41 145.799 264.878 146.716L264.997 146.959C265.221 147.429 265.943 147.862 266.514 148.205C266.942 148.461 267.284 148.667 267.266 148.797C267.225 149.102 264.578 148.609 264.052 147.555L263.938 147.319C263.596 146.611 263.284 146.328 262.332 146.108C261.216 145.851 260.54 145.986 259.293 146.574L258.945 146.742C257.68 147.351 256.906 147.552 255.788 147.374C254.405 147.154 253.51 146.75 252.729 146.108C252.675 146.063 252.622 146.018 252.567 145.97L252.103 145.55C251.777 145.259 251.556 145.116 251.257 145.024L251.073 144.969C250.299 144.741 248.527 145.332 247.236 145.762C246.425 146.032 245.804 146.239 245.737 146.142C245.592 145.932 249.718 143.449 251.26 143.865ZM252.558 155.997L252.219 155.902C250.585 155.486 246.217 157.969 246.371 158.179C246.442 158.277 247.099 158.07 247.957 157.8C249.325 157.369 251.201 156.779 252.021 157.006L252.215 157.062C252.532 157.153 252.766 157.296 253.111 157.588L253.603 158.008C253.661 158.056 253.717 158.101 253.774 158.146C254.601 158.788 255.549 159.191 257.012 159.412C258.197 159.59 259.016 159.389 260.355 158.779L260.724 158.612C262.044 158.023 262.76 157.889 263.942 158.146C264.949 158.366 265.28 158.648 265.642 159.356L265.763 159.593C266.32 160.647 269.122 161.14 269.166 160.835C269.185 160.704 268.822 160.499 268.37 160.243L268.37 160.243L268.37 160.243C267.766 159.9 267 159.466 266.763 158.997L266.638 158.754C266.142 157.837 265.532 157.35 264.205 157.061C262.651 156.722 261.688 156.934 260.03 157.692L259.661 157.859C258.635 158.312 258.04 158.439 257.197 158.312C255.939 158.123 255.185 157.802 254.519 157.284C254.422 157.209 254.327 157.13 254.205 157.025L253.954 156.809L253.756 156.644C253.357 156.323 253.014 156.129 252.558 155.997ZM255.671 167.041L256.022 167.075C256.494 167.126 256.865 167.258 257.314 167.504L257.538 167.632L257.822 167.802C257.96 167.884 258.068 167.945 258.176 168.002C258.922 168.396 259.72 168.581 260.992 168.549C261.845 168.528 262.408 168.299 263.34 167.675L263.675 167.446C265.175 166.412 266.087 166.036 267.676 166.1C269.034 166.154 269.719 166.528 270.366 167.344L270.532 167.562C270.847 167.983 271.676 168.277 272.33 168.51L272.33 168.51C272.821 168.684 273.213 168.823 273.217 168.955C273.227 169.262 270.382 169.264 269.65 168.322L269.49 168.111C269.011 167.476 268.636 167.255 267.606 167.214C266.397 167.166 265.715 167.423 264.518 168.231L264.183 168.461C262.971 169.294 262.199 169.634 261.001 169.664C259.521 169.702 258.518 169.469 257.593 168.98L257.399 168.874L256.842 168.545C256.452 168.319 256.196 168.219 255.869 168.183L255.668 168.162C254.821 168.081 253.076 168.988 251.804 169.65L251.804 169.65L251.804 169.65L251.804 169.65C251.006 170.065 250.394 170.383 250.307 170.299C250.119 170.119 253.991 166.915 255.671 167.041ZM263.66 175.245L263.379 175.272C262.036 175.429 259.366 178.383 259.536 178.489C259.615 178.538 260.06 178.211 260.64 177.784C261.565 177.104 262.834 176.17 263.512 176.105L263.674 176.09C263.937 176.068 264.151 176.104 264.487 176.214L264.967 176.375L265.132 176.424C265.923 176.649 266.743 176.672 267.908 176.424C268.85 176.223 269.419 175.856 270.276 175.057L270.513 174.837C271.36 174.059 271.868 173.767 272.829 173.622C273.648 173.499 273.97 173.607 274.426 174.007L274.578 174.14C275.27 174.729 277.518 174.304 277.473 174.077C277.453 173.98 277.126 173.935 276.718 173.879H276.718C276.173 173.805 275.482 173.71 275.182 173.444L275.025 173.307C274.415 172.798 273.828 172.623 272.749 172.785C271.486 172.975 270.811 173.389 269.751 174.38L269.514 174.6C268.854 175.202 268.436 175.455 267.765 175.598C266.764 175.812 266.111 175.793 265.475 175.612C265.382 175.586 265.29 175.556 265.171 175.516L264.925 175.433L264.733 175.371C264.349 175.255 264.039 175.212 263.66 175.245ZM270.346 180.974L270.627 180.947C271.006 180.915 271.315 180.957 271.7 181.073L271.892 181.135L272.137 181.218C272.256 181.258 272.348 181.288 272.441 181.314C273.078 181.495 273.731 181.514 274.732 181.3C275.403 181.157 275.821 180.904 276.481 180.302L276.718 180.082C277.778 179.091 278.453 178.677 279.716 178.487C280.795 178.325 281.382 178.5 281.992 179.01L282.149 179.146C282.449 179.412 283.14 179.507 283.685 179.581C284.093 179.638 284.42 179.682 284.439 179.78C284.485 180.006 282.237 180.431 281.545 179.842L281.393 179.709C280.937 179.309 280.614 179.201 279.795 179.324C278.835 179.469 278.327 179.761 277.479 180.539L277.243 180.759C276.386 181.558 275.817 181.925 274.874 182.126C273.71 182.374 272.889 182.351 272.099 182.126L271.933 182.077L271.453 181.916C271.118 181.806 270.903 181.77 270.64 181.792L270.479 181.807C269.8 181.872 268.531 182.806 267.606 183.486C267.026 183.913 266.582 184.24 266.503 184.191C266.333 184.085 269.003 181.131 270.346 180.974ZM279.543 187.112L279.322 187.173C278.271 187.488 276.552 190.226 276.703 190.286C276.773 190.314 277.083 189.99 277.486 189.567C278.13 188.893 279.013 187.968 279.546 187.82L279.673 187.785C279.88 187.73 280.056 187.729 280.34 187.769L280.747 187.83L280.886 187.847C281.55 187.915 282.209 187.818 283.105 187.455C283.83 187.162 284.233 186.788 284.805 186.028L284.964 185.819C285.532 185.078 285.896 184.772 286.644 184.521C287.281 184.308 287.555 184.348 287.975 184.603L288.115 184.688C288.752 185.062 290.489 184.405 290.421 184.23C290.391 184.156 290.124 184.166 289.789 184.179C289.343 184.196 288.778 184.217 288.5 184.047L288.356 183.96C287.796 183.639 287.302 183.582 286.463 183.863C285.48 184.193 284.998 184.619 284.29 185.561L284.132 185.77C283.689 186.345 283.391 186.606 282.875 186.815C282.105 187.127 281.58 187.204 281.045 187.149C280.967 187.141 280.89 187.131 280.789 187.115L280.581 187.083L280.419 187.061C280.095 187.022 279.842 187.032 279.543 187.112ZM286.361 192.292L286.583 192.23C286.881 192.151 287.134 192.141 287.458 192.18L287.62 192.202L287.828 192.234C287.929 192.25 288.007 192.26 288.085 192.268C288.619 192.323 289.144 192.246 289.914 191.934C290.43 191.725 290.728 191.463 291.171 190.889L291.33 190.68C292.037 189.738 292.519 189.312 293.502 188.982C294.341 188.7 294.835 188.758 295.395 189.079L295.54 189.166C295.817 189.336 296.382 189.315 296.828 189.297C297.163 189.285 297.43 189.274 297.46 189.349C297.528 189.524 295.791 190.181 295.155 189.807L295.014 189.722C294.594 189.467 294.32 189.427 293.683 189.64C292.936 189.891 292.571 190.196 292.003 190.938L291.845 191.147C291.272 191.907 290.869 192.281 290.144 192.574C289.248 192.937 288.589 193.034 287.925 192.966L287.786 192.949L287.38 192.888C287.096 192.848 286.919 192.849 286.712 192.904L286.585 192.938C286.052 193.086 285.169 194.012 284.526 194.686C284.122 195.109 283.813 195.433 283.743 195.405C283.592 195.344 285.31 192.606 286.361 192.292ZM294.816 197.299L294.595 197.36C293.543 197.675 291.825 200.413 291.976 200.473C292.046 200.501 292.355 200.177 292.759 199.754C293.402 199.08 294.285 198.155 294.819 198.007L294.946 197.973C295.153 197.917 295.329 197.916 295.613 197.957L296.019 198.018L296.158 198.034C296.822 198.102 297.481 198.005 298.377 197.643C299.102 197.349 299.505 196.975 300.078 196.216L300.236 196.007C300.804 195.265 301.169 194.96 301.916 194.709C302.554 194.495 302.827 194.536 303.247 194.791L303.388 194.876C304.024 195.25 305.761 194.593 305.693 194.418C305.664 194.343 305.396 194.353 305.062 194.366C304.615 194.383 304.05 194.405 303.773 194.235L303.628 194.147C303.068 193.826 302.575 193.769 301.735 194.051C300.752 194.38 300.271 194.807 299.563 195.749L299.405 195.958C298.962 196.532 298.663 196.794 298.147 197.003C297.377 197.314 296.852 197.392 296.318 197.336C296.24 197.328 296.162 197.318 296.061 197.303L295.853 197.27L295.691 197.248C295.367 197.21 295.114 197.219 294.816 197.299Z" fill="#FFB61D"/>
</svg>